<?xml version="1.0" encoding="UTF-8" standalone="no"?>
<!-- Uploaded to: SVG Repo, www.svgrepo.com, Generator: SVG Repo Mixer Tools -->

<svg
   width="800"
   height="800"
   viewBox="0 0 24 24"
   fill="none"
   version="1.1"
   id="svg1"
   sodipodi:docname="rock-paper-scissors.svg"
   inkscape:version="1.3 (0e150ed6c4, 2023-07-21)"
   xmlns:inkscape="http://www.inkscape.org/namespaces/inkscape"
   xmlns:sodipodi="http://sodipodi.sourceforge.net/DTD/sodipodi-0.dtd"
   xmlns="http://www.w3.org/2000/svg"
   xmlns:svg="http://www.w3.org/2000/svg">
  <defs
     id="defs1">
    <inkscape:path-effect
       effect="fillet_chamfer"
       id="path-effect12"
       is_visible="true"
       lpeversion="1"
       nodesatellites_param="F,0,0,1,0,0,0,1 @ F,0,0,1,0,0,0,1 @ F,0,0,1,0,0,0,1 @ F,0,0,1,0,0,0,1 @ F,0,0,1,0,0,0,1 @ F,0,0,1,0,0,0,1 @ F,0,0,1,0,0,0,1 @ F,0,0,1,0,0,0,1 @ F,0,0,1,0,0,0,1 @ F,0,0,1,0,0,0,1 @ F,0,0,1,0,0,0,1 @ F,0,1,1,0,0.22570629,0,1 @ F,0,0,1,0,0,0,1 @ F,0,1,1,0,0.22570629,0,1 @ F,0,0,1,0,0,0,1 @ F,0,0,1,0,0,0,1 @ F,0,0,1,0,0,0,1 @ F,0,0,1,0,0,0,1 @ F,0,0,1,0,0,0,1 @ F,0,0,1,0,0,0,1 @ F,0,0,1,0,0,0,1 @ F,0,0,1,0,0,0,1 @ F,0,0,1,0,0,0,1 @ F,0,0,1,0,0,0,1 @ F,0,0,1,0,0,0,1 @ F,0,0,1,0,0,0,1 @ F,0,0,1,0,0,0,1 @ F,0,0,1,0,0,0,1 @ F,0,0,1,0,0,0,1 @ F,0,0,1,0,0,0,1 @ F,0,0,1,0,0,0,1 @ F,0,0,1,0,0,0,1 @ F,0,0,1,0,0,0,1 @ F,0,0,1,0,0,0,1 @ F,0,0,1,0,0,0,1 @ F,0,1,1,0,0.22570629,0,1 @ F,0,1,1,0,0.22570629,0,1 @ F,0,0,1,0,0,0,1 @ F,0,0,1,0,0,0,1 @ F,0,0,1,0,0,0,1 @ F,0,0,1,0,0,0,1 @ F,0,0,1,0,0,0,1 @ F,0,0,1,0,0,0,1 @ F,0,0,1,0,0,0,1 @ F,0,0,1,0,0,0,1 @ F,0,0,1,0,0,0,1 @ F,0,0,1,0,0,0,1 @ F,0,0,1,0,0,0,1 @ F,0,0,1,0,0,0,1 @ F,0,0,1,0,0,0,1 @ F,0,0,1,0,0,0,1 @ F,0,0,1,0,0,0,1 @ F,0,0,1,0,0,0,1 @ F,0,0,1,0,0,0,1 @ F,0,0,1,0,0,0,1 @ F,0,0,1,0,0,0,1 @ F,0,0,1,0,0,0,1 @ F,0,0,1,0,0,0,1 @ F,0,0,1,0,0,0,1 @ F,0,0,1,0,0,0,1 @ F,0,0,1,0,0,0,1 @ F,0,0,1,0,0,0,1 @ F,0,0,1,0,0,0,1 @ F,0,0,1,0,0,0,1 @ F,0,0,1,0,0,0,1 @ F,0,0,1,0,0,0,1 @ F,0,0,1,0,0,0,1 @ F,0,0,1,0,0,0,1 @ F,0,0,1,0,0,0,1 @ F,0,0,1,0,0,0,1 @ F,0,0,1,0,0,0,1 @ F,0,0,1,0,0,0,1 @ F,0,0,1,0,0,0,1 @ F,0,0,1,0,0,0,1 @ F,0,0,1,0,0,0,1 @ F,0,0,1,0,0,0,1 @ F,0,0,1,0,0,0,1 @ F,0,0,1,0,0,0,1 @ F,0,0,1,0,0,0,1 @ F,0,0,1,0,0,0,1 @ F,0,0,1,0,0,0,1 @ F,0,0,1,0,0,0,1 @ F,0,0,1,0,0,0,1 @ F,0,0,1,0,0,0,1 @ F,0,0,1,0,0,0,1 @ F,0,0,1,0,0,0,1 @ F,0,0,1,0,0,0,1 @ F,0,0,1,0,0,0,1 @ F,0,0,1,0,0,0,1 @ F,0,0,1,0,0,0,1 @ F,0,0,1,0,0,0,1 @ F,0,0,1,0,0,0,1 @ F,0,0,1,0,0,0,1 @ F,0,0,1,0,0,0,1 @ F,0,0,1,0,0,0,1 @ F,0,0,1,0,0,0,1 @ F,0,0,1,0,0,0,1 @ F,0,0,1,0,0,0,1 @ F,0,0,1,0,0,0,1 @ F,0,0,1,0,0,0,1 @ F,0,0,1,0,0,0,1 @ F,0,0,1,0,0,0,1 @ F,0,0,1,0,0,0,1 @ F,0,0,1,0,0,0,1 @ F,0,0,1,0,0,0,1 @ F,0,0,1,0,0,0,1 @ F,0,0,1,0,0,0,1 @ F,0,0,1,0,0,0,1 @ F,0,0,1,0,0,0,1 @ F,0,0,1,0,0,0,1 @ F,0,0,1,0,0,0,1 @ F,0,0,1,0,0,0,1 @ F,0,0,1,0,0,0,1 @ F,0,0,1,0,0,0,1 @ F,0,0,1,0,0,0,1 @ F,0,0,1,0,0,0,1 @ F,0,0,1,0,0,0,1 @ F,0,0,1,0,0,0,1 @ F,0,0,1,0,0,0,1 @ F,0,0,1,0,0,0,1 @ F,0,0,1,0,0,0,1 @ F,0,0,1,0,0,0,1 @ F,0,0,1,0,0,0,1 @ F,0,0,1,0,0,0,1 @ F,0,0,1,0,0,0,1 @ F,0,0,1,0,0,0,1 @ F,0,0,1,0,0,0,1 @ F,0,0,1,0,0,0,1 @ F,0,0,1,0,0,0,1 @ F,0,0,1,0,0,0,1 @ F,0,0,1,0,0,0,1 @ F,0,1,1,0,0.22570629,0,1 @ F,0,0,1,0,0,0,1 @ F,0,0,1,0,0,0,1 @ F,0,0,1,0,0,0,1 @ F,0,0,1,0,0,0,1 @ F,0,0,1,0,0,0,1 @ F,0,0,1,0,0,0,1 @ F,0,0,1,0,0,0,1 @ F,0,0,1,0,0,0,1 @ F,0,0,1,0,0,0,1 @ F,0,0,1,0,0,0,1 @ F,0,0,1,0,0,0,1 @ F,0,0,1,0,0,0,1 @ F,0,0,1,0,0,0,1 @ F,0,0,1,0,0,0,1 @ F,0,0,1,0,0,0,1 @ F,0,0,1,0,0,0,1 @ F,0,0,1,0,0,0,1 @ F,0,0,1,0,0,0,1 @ F,0,0,1,0,0,0,1 @ F,0,0,1,0,0,0,1 @ F,0,0,1,0,0,0,1 @ F,0,0,1,0,0,0,1 @ F,0,0,1,0,0,0,1 @ F,0,1,1,0,0.22570629,0,1 @ F,0,0,1,0,0.22570629,0,1 @ F,0,0,1,0,0,0,1 @ F,0,0,1,0,0,0,1 @ F,0,0,1,0,0,0,1 @ F,0,0,1,0,0,0,1 @ F,0,0,1,0,0,0,1 @ F,0,0,1,0,0,0,1 @ F,0,0,1,0,0,0,1 @ F,0,0,1,0,0,0,1 @ F,0,0,1,0,0,0,1 @ F,0,0,1,0,0,0,1 @ F,0,0,1,0,0,0,1"
       radius="0"
       unit="px"
       method="auto"
       mode="F"
       chamfer_steps="1"
       flexible="false"
       use_knot_distance="true"
       apply_no_radius="true"
       apply_with_radius="true"
       only_selected="false"
       hide_knots="false" />
  </defs>
  <sodipodi:namedview
     id="namedview1"
     pagecolor="#ffffff"
     bordercolor="#999999"
     borderopacity="1"
     inkscape:showpageshadow="2"
     inkscape:pageopacity="0"
     inkscape:pagecheckerboard="0"
     inkscape:deskcolor="#d1d1d1"
     showguides="true"
     inkscape:zoom="0.33101436"
     inkscape:cx="-613.26644"
     inkscape:cy="-228.08678"
     inkscape:window-width="1920"
     inkscape:window-height="947"
     inkscape:window-x="1680"
     inkscape:window-y="32"
     inkscape:window-maximized="1"
     inkscape:current-layer="svg1" />
  <rect
     style="opacity:1;fill:#ffffff;fill-opacity:1;stroke:#000000;stroke-width:0.6;stroke-dasharray:none;stroke-opacity:1"
     id="rect39"
     width="23.4"
     height="23.4"
     x="0.30000001"
     y="0.30000001"
     ry="2.3584671"
     inkscape:export-filename="paper.svg"
     inkscape:export-xdpi="96"
     inkscape:export-ydpi="96" />
  <path
     style="color:#000000;fill:#808080;fill-opacity:1;stroke:#000000;stroke-width:0.655422;stroke-dasharray:none;stroke-opacity:1"
     d="m 11.726583,0.22067843 c -0.04867,0 -0.09677,0.00243 -0.144141,0.00721 -0.04737,0.00478 -0.09403,0.011879 -0.139863,0.021211 -0.09168,0.018665 -0.180052,0.046206 -0.264199,0.08168 -0.08415,0.035473 -0.164066,0.078891 -0.238828,0.1293164 -0.07476,0.050426 -0.144369,0.1078646 -0.207891,0.1713868 -0.06352,0.063522 -0.120961,0.1331279 -0.171387,0.2078906 -0.05042,0.074763 -0.09384,0.1546809 -0.129316,0.23882807 -0.03547,0.084147 -0.06302,0.1725236 -0.08168,0.2641992 -0.0093,0.045838 -0.01649,0.092491 -0.02127,0.1398633 -0.0048,0.047372 -0.0072,0.095467 -0.0072,0.1441406 v 7.3845674 a 0.22535342,0.22535342 134.91021 0 1 -0.225,0.2257063 A 0.22535377,0.22535377 45.089698 0 1 9.8708073,9.0109718 V 3.5882956 c 0,-0.048674 -0.0024,-0.096769 -0.0072,-0.1441406 -0.0048,-0.047372 -0.01194,-0.094026 -0.02127,-0.1398633 -0.01867,-0.091675 -0.04621,-0.1800522 -0.08168,-0.2641992 C 9.7251873,2.9559455 9.6817673,2.8760269 9.6313413,2.8012644 9.5809113,2.7265014 9.5234763,2.6568958 9.4599543,2.5933738 9.3964343,2.5298518 9.3268263,2.4724126 9.2520633,2.421987 9.1773033,2.371561 9.0973823,2.328144 9.0132353,2.2926706 c -0.08415,-0.035473 -0.172524,-0.063015 -0.264199,-0.08168 -0.04584,-0.00933 -0.09249,-0.016429 -0.139863,-0.021211 -0.04737,-0.00478 -0.095467,-0.00727 -0.1441411,-0.00727 -0.048674,0 -0.096769,0.00248 -0.1441406,0.00727 -0.047372,0.00478 -0.094026,0.011879 -0.1398633,0.021211 -0.091675,0.018665 -0.1800522,0.046207 -0.2641992,0.08168 C 7.8326821,2.3281436 7.7527635,2.3715616 7.678001,2.421987 7.603238,2.472413 7.5336324,2.5298517 7.4701103,2.5933738 c -0.063522,0.063522 -0.1209611,0.133128 -0.1713867,0.2078906 -0.050426,0.074762 -0.093843,0.1546811 -0.1293164,0.2388281 -0.035473,0.084147 -0.063015,0.1725238 -0.08168,0.2641992 -0.00933,0.045838 -0.016429,0.092492 -0.021211,0.1398633 -0.00478,0.047372 -0.00721,0.095467 -0.00721,0.1441406 V 9.0109688 A 0.22570629,0.22570629 135 0 1 6.8335999,9.2366751 0.22500111,0.22500111 45.179855 0 1 6.6093062,9.0109688 V 5.9296433 c 0,-0.048674 -0.00248,-0.096769 -0.00727,-0.1441406 C 6.5972498,5.7381309 6.5901532,5.691477 6.580821,5.6456394 6.5621565,5.5539641 6.5346143,5.465587 6.4991413,5.3814402 6.4636683,5.2972933 6.4202504,5.2173744 6.3698249,5.142612 6.3193994,5.0678496 6.2619601,4.9982434 6.1984382,4.9347214 6.1349162,4.8711994 6.06531,4.8137602 5.9905475,4.7633347 5.9157851,4.7129092 5.8358663,4.6694913 5.7517194,4.6340183 c -0.084147,-0.035473 -0.172524,-0.063015 -0.2641992,-0.08168 -0.045838,-0.00933 -0.092492,-0.016487 -0.1398633,-0.021269 -0.047372,-0.00478 -0.095467,-0.00721 -0.1441406,-0.00721 -0.048674,0 -0.096769,0.00242 -0.1441406,0.00721 -0.047372,0.00478 -0.094026,0.011937 -0.1398633,0.021269 C 4.8278374,4.5710033 4.73946,4.5985453 4.6553132,4.6340183 4.5711662,4.6694911 4.4912475,4.7129091 4.416485,4.7633345 4.341723,4.8137605 4.2721164,4.8711992 4.2085944,4.9347212 4.1450724,4.9982432 4.0876332,5.0678494 4.0372077,5.1426118 3.9867817,5.2173738 3.9433647,5.2972931 3.9078913,5.38144 c -0.035473,0.084147 -0.063015,0.1725239 -0.08168,0.2641992 -0.00933,0.045838 -0.016429,0.092491 -0.021211,0.1398633 -0.00478,0.047372 -0.00727,0.095467 -0.00727,0.1441406 v 3.533731 1.8049799 4.039629 c 0,0.0157 0.00162,0.03103 0.00463,0.04582 0.00155,0.0076 0.00445,0.01462 0.00674,0.02191 -0.00446,0.05296 -0.00825,0.105972 -0.011367,0.159024 -5e-7,0.149954 0.00536,0.299819 0.016055,0.449297 0.01069,0.149477 0.026707,0.298583 0.048047,0.447011 0.021342,0.148423 0.047949,0.296013 0.079805,0.442442 0.031856,0.146428 0.068964,0.291712 0.1112109,0.435586 0.042253,0.143879 0.089597,0.286212 0.1419727,0.426621 0.052376,0.140409 0.1097909,0.278911 0.1720898,0.415312 0.062285,0.136411 0.1293989,0.270534 0.201211,0.402071 0.071812,0.131536 0.1483301,0.260502 0.2293945,0.38666 0.081076,0.126148 0.1665948,0.249349 0.2564063,0.369316 0.089811,0.119967 0.1839255,0.236713 0.2821289,0.350039 0.098197,0.113326 0.200364,0.223099 0.3063281,0.329063 0.105964,0.105964 0.2157373,0.208131 0.3290625,0.306328 0.1133268,0.09819 0.2300722,0.192327 0.350039,0.282129 0.1199669,0.0898 0.2431691,0.175282 0.3693165,0.256347 0.1261479,0.08107 0.2551333,0.157632 0.3866601,0.229454 0.1315268,0.07182 0.2656099,0.138915 0.4020117,0.201211 0.1364015,0.0623 0.2749619,0.119713 0.4153711,0.172089 0.1404093,0.05238 0.2826833,0.09972 0.4265625,0.141973 0.1438846,0.04224 0.2892064,0.07931 0.4356444,0.111152 0.146439,0.03185 0.29401,0.05847 0.442442,0.07981 0.148427,0.02135 0.297534,0.03741 0.447011,0.04811 0.149478,0.0107 0.299342,0.01604 0.4492977,0.01605 0.149954,-9e-6 0.299819,-0.0054 0.449297,-0.01605 0.149477,-0.0107 0.298584,-0.02676 0.447011,-0.04811 0.148422,-0.02134 0.296013,-0.04796 0.442442,-0.07981 0.146428,-0.03185 0.29171,-0.06892 0.435586,-0.111152 0.143888,-0.04225 0.286202,-0.0896 0.426621,-0.141973 0.140419,-0.05238 0.27896,-0.109789 0.415371,-0.172089 0.136402,-0.0623 0.270485,-0.12939 0.402012,-0.201211 0.131526,-0.07182 0.260512,-0.14838 0.38666,-0.229454 0.08532,-0.05483 0.167259,-0.114528 0.249785,-0.173378 0.03949,-0.02816 0.0807,-0.0539 0.119531,-0.08297 0.101631,-0.07608 0.199652,-0.156886 0.296543,-0.239004 l 0.61377,-0.597832 7.078183,-6.894141 c 0.04145,-0.04037 0.08035,-0.08232 0.116719,-0.125683 0.03637,-0.04336 0.07019,-0.08816 0.101484,-0.134121 0.03129,-0.04596 0.06004,-0.09309 0.08625,-0.14127 0.02621,-0.04818 0.0499,-0.09736 0.07102,-0.147363 0.02112,-0.05 0.0397,-0.100854 0.05572,-0.152285 0.01602,-0.05143 0.02945,-0.103445 0.04037,-0.155918 0.01092,-0.05247 0.01932,-0.10537 0.02514,-0.158496 0.0058,-0.05313 0.0091,-0.106514 0.0098,-0.159903 7.03e-4,-0.05339 -0.0012,-0.106817 -0.0056,-0.160078 -0.0044,-0.05326 -0.01138,-0.106339 -0.02092,-0.159082 -0.0095,-0.05274 -0.02167,-0.105137 -0.03633,-0.156973 -0.01466,-0.05184 -0.03189,-0.103153 -0.05168,-0.153691 -0.01979,-0.05054 -0.04216,-0.100329 -0.06709,-0.14918 -0.02493,-0.04885 -0.05243,-0.09672 -0.0825,-0.143496 -0.03007,-0.04677 -0.06269,-0.09245 -0.09791,-0.136758 -0.03522,-0.04431 -0.07301,-0.08728 -0.113379,-0.12873 -0.04037,-0.04145 -0.08232,-0.08035 -0.125683,-0.116719 -0.04336,-0.03637 -0.08816,-0.07019 -0.134121,-0.101484 -0.04596,-0.03129 -0.09315,-0.06004 -0.141328,-0.08625 -0.04818,-0.02621 -0.09736,-0.0499 -0.147364,-0.07102 -0.05,-0.02112 -0.100795,-0.0397 -0.152226,-0.05572 -0.05143,-0.01602 -0.103503,-0.02945 -0.155977,-0.04037 -0.05247,-0.01092 -0.10537,-0.01932 -0.158496,-0.02514 -0.05313,-0.0058 -0.106455,-0.0091 -0.159844,-0.0098 -0.05339,-7.03e-4 -0.106817,0.0012 -0.160078,0.0056 -0.05326,0.0044 -0.106339,0.01138 -0.159082,0.02092 -0.05274,0.0095 -0.105137,0.02167 -0.156972,0.03633 -0.05184,0.01466 -0.103154,0.03189 -0.153692,0.05168 -0.05054,0.01979 -0.100329,0.04216 -0.14918,0.06709 -0.04885,0.02493 -0.09678,0.05243 -0.143554,0.0825 -0.04677,0.03007 -0.09239,0.06269 -0.136699,0.09791 -0.04431,0.03522 -0.08728,0.07301 -0.128731,0.113379 l -2.971144,2.893847 a 0.09523783,0.09523783 22.877542 0 1 -0.161688,-0.06822 V 11.268378 9.4633981 3.5883196 c 0,-0.048674 -0.0025,-0.096769 -0.0073,-0.1441406 -0.0048,-0.047372 -0.01188,-0.094025 -0.02121,-0.1398633 -0.01866,-0.091676 -0.04621,-0.1800519 -0.08168,-0.2641992 -0.03547,-0.084147 -0.07889,-0.1640653 -0.129317,-0.2388281 -0.05043,-0.074763 -0.107864,-0.1443683 -0.171386,-0.2078906 -0.06352,-0.063522 -0.133128,-0.120961 -0.207891,-0.1713868 -0.07476,-0.050426 -0.154681,-0.093843 -0.238828,-0.1293164 -0.08415,-0.035473 -0.172523,-0.063015 -0.264199,-0.08168 -0.04584,-0.00933 -0.09249,-0.016429 -0.139864,-0.021211 -0.04737,-0.00478 -0.09547,-0.00727 -0.14414,-0.00727 -0.04867,0 -0.09677,0.00248 -0.144141,0.00727 -0.04737,0.00478 -0.09403,0.011879 -0.139863,0.021211 -0.09168,0.018665 -0.180052,0.046206 -0.264199,0.08168 -0.08415,0.035473 -0.164066,0.078891 -0.238828,0.1293164 -0.07476,0.050426 -0.144369,0.1078644 -0.207891,0.1713868 -0.06352,0.063522 -0.120961,0.1331277 -0.171387,0.2078906 -0.05043,0.074763 -0.09384,0.1546808 -0.129316,0.2388281 -0.03547,0.084147 -0.06302,0.1725234 -0.08168,0.2641992 -0.0093,0.045838 -0.01643,0.092491 -0.02121,0.1398633 -0.0048,0.047372 -0.0073,0.095467 -0.0073,0.1441406 V 9.0109928 A 0.22570629,0.22570629 135 0 1 13.356512,9.2366991 0.22500111,0.22500111 45.179855 0 1 13.132218,9.0109928 V 1.6264011 c 0,-0.048674 -0.0024,-0.096769 -0.0072,-0.1441406 -0.0048,-0.047372 -0.01188,-0.094025 -0.02121,-0.1398633 -0.01858,-0.091676 -0.04613,-0.1800521 -0.0816,-0.2641992 -0.03547,-0.084147 -0.07889,-0.16406537 -0.129317,-0.23882807 -0.05043,-0.074763 -0.107864,-0.1443685 -0.171386,-0.2078907 -0.06352,-0.063522 -0.133128,-0.120961 -0.207891,-0.1713867 -0.07476,-0.050426 -0.154681,-0.093843 -0.238828,-0.1293164 -0.08415,-0.035473 -0.172524,-0.063015 -0.264199,-0.08168 -0.04584,-0.00933 -0.09255,-0.016429 -0.139922,-0.021211 -0.04737,-0.00478 -0.09541,-0.00721 -0.144082,-0.00721 z"
     id="path8"
     inkscape:path-effect="#path-effect12"
     inkscape:original-d="m 11.726583,0.22067843 c -0.04867,0 -0.09677,0.00243 -0.144141,0.00721 -0.04737,0.00478 -0.09403,0.011879 -0.139863,0.021211 -0.09168,0.018665 -0.180052,0.046206 -0.264199,0.08168 -0.08415,0.035473 -0.164066,0.078891 -0.238828,0.1293164 -0.07476,0.050426 -0.144369,0.1078646 -0.207891,0.1713868 -0.06352,0.063522 -0.120961,0.1331279 -0.171387,0.2078906 -0.05042,0.074763 -0.09384,0.1546809 -0.129316,0.23882807 -0.03547,0.084147 -0.06302,0.1725236 -0.08168,0.2641992 -0.0093,0.045838 -0.01649,0.092491 -0.02127,0.1398633 -0.0048,0.047372 -0.0072,0.095467 -0.0072,0.1441406 v 7.6102737 h -0.225 -0.2250007 V 3.5882956 c 0,-0.048674 -0.0024,-0.096769 -0.0072,-0.1441406 -0.0048,-0.047372 -0.01194,-0.094026 -0.02127,-0.1398633 -0.01867,-0.091675 -0.04621,-0.1800522 -0.08168,-0.2641992 C 9.7251873,2.9559455 9.6817673,2.8760269 9.6313413,2.8012644 9.5809113,2.7265014 9.5234763,2.6568958 9.4599543,2.5933738 9.3964343,2.5298518 9.3268263,2.4724126 9.2520633,2.421987 9.1773033,2.371561 9.0973823,2.328144 9.0132353,2.2926706 c -0.08415,-0.035473 -0.172524,-0.063015 -0.264199,-0.08168 -0.04584,-0.00933 -0.09249,-0.016429 -0.139863,-0.021211 -0.04737,-0.00478 -0.095467,-0.00727 -0.1441411,-0.00727 -0.048674,0 -0.096769,0.00248 -0.1441406,0.00727 -0.047372,0.00478 -0.094026,0.011879 -0.1398633,0.021211 -0.091675,0.018665 -0.1800522,0.046207 -0.2641992,0.08168 C 7.8326821,2.3281436 7.7527635,2.3715616 7.678001,2.421987 7.603238,2.472413 7.5336324,2.5298517 7.4701103,2.5933738 c -0.063522,0.063522 -0.1209611,0.133128 -0.1713867,0.2078906 -0.050426,0.074762 -0.093843,0.1546811 -0.1293164,0.2388281 -0.035473,0.084147 -0.063015,0.1725238 -0.08168,0.2641992 -0.00933,0.045838 -0.016429,0.092492 -0.021211,0.1398633 -0.00478,0.047372 -0.00721,0.095467 -0.00721,0.1441406 v 5.6483795 h -0.45 V 5.9296433 c 0,-0.048674 -0.00248,-0.096769 -0.00727,-0.1441406 C 6.5972498,5.7381309 6.5901532,5.691477 6.580821,5.6456394 6.5621565,5.5539641 6.5346143,5.465587 6.4991413,5.3814402 6.4636683,5.2972933 6.4202504,5.2173744 6.3698249,5.142612 6.3193994,5.0678496 6.2619601,4.9982434 6.1984382,4.9347214 6.1349162,4.8711994 6.06531,4.8137602 5.9905475,4.7633347 5.9157851,4.7129092 5.8358663,4.6694913 5.7517194,4.6340183 c -0.084147,-0.035473 -0.172524,-0.063015 -0.2641992,-0.08168 -0.045838,-0.00933 -0.092492,-0.016487 -0.1398633,-0.021269 -0.047372,-0.00478 -0.095467,-0.00721 -0.1441406,-0.00721 -0.048674,0 -0.096769,0.00242 -0.1441406,0.00721 -0.047372,0.00478 -0.094026,0.011937 -0.1398633,0.021269 C 4.8278374,4.5710033 4.73946,4.5985453 4.6553132,4.6340183 4.5711662,4.6694911 4.4912475,4.7129091 4.416485,4.7633345 4.341723,4.8137605 4.2721164,4.8711992 4.2085944,4.9347212 4.1450724,4.9982432 4.0876332,5.0678494 4.0372077,5.1426118 3.9867817,5.2173738 3.9433647,5.2972931 3.9078913,5.38144 c -0.035473,0.084147 -0.063015,0.1725239 -0.08168,0.2641992 -0.00933,0.045838 -0.016429,0.092491 -0.021211,0.1398633 -0.00478,0.047372 -0.00727,0.095467 -0.00727,0.1441406 v 3.533731 1.8049799 4.039629 c 0,0.0157 0.00162,0.03103 0.00463,0.04582 0.00155,0.0076 0.00445,0.01462 0.00674,0.02191 -0.00446,0.05296 -0.00825,0.105972 -0.011367,0.159024 -5e-7,0.149954 0.00536,0.299819 0.016055,0.449297 0.01069,0.149477 0.026707,0.298583 0.048047,0.447011 0.021342,0.148423 0.047949,0.296013 0.079805,0.442442 0.031856,0.146428 0.068964,0.291712 0.1112109,0.435586 0.042253,0.143879 0.089597,0.286212 0.1419727,0.426621 0.052376,0.140409 0.1097909,0.278911 0.1720898,0.415312 0.062285,0.136411 0.1293989,0.270534 0.201211,0.402071 0.071812,0.131536 0.1483301,0.260502 0.2293945,0.38666 0.081076,0.126148 0.1665948,0.249349 0.2564063,0.369316 0.089811,0.119967 0.1839255,0.236713 0.2821289,0.350039 0.098197,0.113326 0.200364,0.223099 0.3063281,0.329063 0.105964,0.105964 0.2157373,0.208131 0.3290625,0.306328 0.1133268,0.09819 0.2300722,0.192327 0.350039,0.282129 0.1199669,0.0898 0.2431691,0.175282 0.3693165,0.256347 0.1261479,0.08107 0.2551333,0.157632 0.3866601,0.229454 0.1315268,0.07182 0.2656099,0.138915 0.4020117,0.201211 0.1364015,0.0623 0.2749619,0.119713 0.4153711,0.172089 0.1404093,0.05238 0.2826833,0.09972 0.4265625,0.141973 0.1438846,0.04224 0.2892064,0.07931 0.4356444,0.111152 0.146439,0.03185 0.29401,0.05847 0.442442,0.07981 0.148427,0.02135 0.297534,0.03741 0.447011,0.04811 0.149478,0.0107 0.299342,0.01604 0.4492977,0.01605 0.149954,-9e-6 0.299819,-0.0054 0.449297,-0.01605 0.149477,-0.0107 0.298584,-0.02676 0.447011,-0.04811 0.148422,-0.02134 0.296013,-0.04796 0.442442,-0.07981 0.146428,-0.03185 0.29171,-0.06892 0.435586,-0.111152 0.143888,-0.04225 0.286202,-0.0896 0.426621,-0.141973 0.140419,-0.05238 0.27896,-0.109789 0.415371,-0.172089 0.136402,-0.0623 0.270485,-0.12939 0.402012,-0.201211 0.131526,-0.07182 0.260512,-0.14838 0.38666,-0.229454 0.08532,-0.05483 0.167259,-0.114528 0.249785,-0.173378 0.03949,-0.02816 0.0807,-0.0539 0.119531,-0.08297 0.101631,-0.07608 0.199652,-0.156886 0.296543,-0.239004 l 0.61377,-0.597832 7.078183,-6.894141 c 0.04145,-0.04037 0.08035,-0.08232 0.116719,-0.125683 0.03637,-0.04336 0.07019,-0.08816 0.101484,-0.134121 0.03129,-0.04596 0.06004,-0.09309 0.08625,-0.14127 0.02621,-0.04818 0.0499,-0.09736 0.07102,-0.147363 0.02112,-0.05 0.0397,-0.100854 0.05572,-0.152285 0.01602,-0.05143 0.02945,-0.103445 0.04037,-0.155918 0.01092,-0.05247 0.01932,-0.10537 0.02514,-0.158496 0.0058,-0.05313 0.0091,-0.106514 0.0098,-0.159903 7.03e-4,-0.05339 -0.0012,-0.106817 -0.0056,-0.160078 -0.0044,-0.05326 -0.01138,-0.106339 -0.02092,-0.159082 -0.0095,-0.05274 -0.02167,-0.105137 -0.03633,-0.156973 -0.01466,-0.05184 -0.03189,-0.103153 -0.05168,-0.153691 -0.01979,-0.05054 -0.04216,-0.100329 -0.06709,-0.14918 -0.02493,-0.04885 -0.05243,-0.09672 -0.0825,-0.143496 -0.03007,-0.04677 -0.06269,-0.09245 -0.09791,-0.136758 -0.03522,-0.04431 -0.07301,-0.08728 -0.113379,-0.12873 -0.04037,-0.04145 -0.08232,-0.08035 -0.125683,-0.116719 -0.04336,-0.03637 -0.08816,-0.07019 -0.134121,-0.101484 -0.04596,-0.03129 -0.09315,-0.06004 -0.141328,-0.08625 -0.04818,-0.02621 -0.09736,-0.0499 -0.147364,-0.07102 -0.05,-0.02112 -0.100795,-0.0397 -0.152226,-0.05572 -0.05143,-0.01602 -0.103503,-0.02945 -0.155977,-0.04037 -0.05247,-0.01092 -0.10537,-0.01932 -0.158496,-0.02514 -0.05313,-0.0058 -0.106455,-0.0091 -0.159844,-0.0098 -0.05339,-7.03e-4 -0.106817,0.0012 -0.160078,0.0056 -0.05326,0.0044 -0.106339,0.01138 -0.159082,0.02092 -0.05274,0.0095 -0.105137,0.02167 -0.156972,0.03633 -0.05184,0.01466 -0.103154,0.03189 -0.153692,0.05168 -0.05054,0.01979 -0.100329,0.04216 -0.14918,0.06709 -0.04885,0.02493 -0.09678,0.05243 -0.143554,0.0825 -0.04677,0.03007 -0.09239,0.06269 -0.136699,0.09791 -0.04431,0.03522 -0.08728,0.07301 -0.128731,0.113379 l -3.132832,3.051328 V 11.268378 9.4633981 3.5883196 c 0,-0.048674 -0.0025,-0.096769 -0.0073,-0.1441406 -0.0048,-0.047372 -0.01188,-0.094025 -0.02121,-0.1398633 -0.01866,-0.091676 -0.04621,-0.1800519 -0.08168,-0.2641992 -0.03547,-0.084147 -0.07889,-0.1640653 -0.129317,-0.2388281 -0.05043,-0.074763 -0.107864,-0.1443683 -0.171386,-0.2078906 -0.06352,-0.063522 -0.133128,-0.120961 -0.207891,-0.1713868 -0.07476,-0.050426 -0.154681,-0.093843 -0.238828,-0.1293164 -0.08415,-0.035473 -0.172523,-0.063015 -0.264199,-0.08168 -0.04584,-0.00933 -0.09249,-0.016429 -0.139864,-0.021211 -0.04737,-0.00478 -0.09547,-0.00727 -0.14414,-0.00727 -0.04867,0 -0.09677,0.00248 -0.144141,0.00727 -0.04737,0.00478 -0.09403,0.011879 -0.139863,0.021211 -0.09168,0.018665 -0.180052,0.046206 -0.264199,0.08168 -0.08415,0.035473 -0.164066,0.078891 -0.238828,0.1293164 -0.07476,0.050426 -0.144369,0.1078644 -0.207891,0.1713868 -0.06352,0.063522 -0.120961,0.1331277 -0.171387,0.2078906 -0.05043,0.074763 -0.09384,0.1546808 -0.129316,0.2388281 -0.03547,0.084147 -0.06302,0.1725234 -0.08168,0.2641992 -0.0093,0.045838 -0.01643,0.092491 -0.02121,0.1398633 -0.0048,0.047372 -0.0073,0.095467 -0.0073,0.1441406 v 5.6483795 h -0.45 v -7.610298 c 0,-0.048674 -0.0024,-0.096769 -0.0072,-0.1441406 -0.0048,-0.047372 -0.01188,-0.094025 -0.02121,-0.1398633 -0.01858,-0.091676 -0.04613,-0.1800521 -0.0816,-0.2641992 -0.03547,-0.084147 -0.07889,-0.16406537 -0.129317,-0.23882807 -0.05043,-0.074763 -0.107864,-0.1443685 -0.171386,-0.2078907 -0.06352,-0.063522 -0.133128,-0.120961 -0.207891,-0.1713867 -0.07476,-0.050426 -0.154681,-0.093843 -0.238828,-0.1293164 -0.08415,-0.035473 -0.172524,-0.063015 -0.264199,-0.08168 -0.04584,-0.00933 -0.09255,-0.016429 -0.139922,-0.021211 -0.04737,-0.00478 -0.09541,-0.00721 -0.144082,-0.00721 z"
     transform="matrix(0.91630235,0,0,0.91457858,0.01339575,1.9151782)" />
</svg>
