<?xml version="1.0" encoding="UTF-8" standalone="no"?>
<!-- Uploaded to: SVG Repo, www.svgrepo.com, Generator: SVG Repo Mixer Tools -->

<svg
   width="799.99988"
   height="799.99994"
   viewBox="0 0 23.999996 23.999998"
   fill="none"
   version="1.1"
   id="svg1"
   sodipodi:docname="rock-paper-scissors.svg"
   inkscape:version="1.3 (0e150ed6c4, 2023-07-21)"
   xmlns:inkscape="http://www.inkscape.org/namespaces/inkscape"
   xmlns:sodipodi="http://sodipodi.sourceforge.net/DTD/sodipodi-0.dtd"
   xmlns="http://www.w3.org/2000/svg"
   xmlns:svg="http://www.w3.org/2000/svg">
  <defs
     id="defs1">
    <inkscape:path-effect
       effect="fillet_chamfer"
       id="path-effect25"
       is_visible="true"
       lpeversion="1"
       nodesatellites_param="F,0,0,1,0,0,0,1 @ F,0,0,1,0,0,0,1 @ F,0,0,1,0,0,0,1 @ F,0,0,1,0,0,0,1 @ F,0,0,1,0,0,0,1 @ F,0,0,1,0,0,0,1 @ F,0,0,1,0,0,0,1 @ F,0,0,1,0,0,0,1 @ F,0,0,1,0,0,0,1 @ F,0,0,1,0,0,0,1 @ F,0,0,1,0,0,0,1 @ F,0,0,1,0,0,0,1 @ F,0,0,1,0,0,0,1 @ F,0,0,1,0,0,0,1 @ F,0,0,1,0,0,0,1 @ F,0,0,1,0,0,0,1 @ F,0,0,1,0,0,0,1 @ F,0,0,1,0,0,0,1 @ F,0,0,1,0,0,0,1 @ F,0,0,1,0,0,0,1 @ F,0,0,1,0,0,0,1 @ F,0,0,1,0,0,0,1 @ F,0,0,1,0,0,0,1 @ F,0,0,1,0,0,0,1 @ F,0,0,1,0,0,0,1 @ F,0,0,1,0,0,0,1 @ F,0,0,1,0,0,0,1 @ F,0,0,1,0,0,0,1 @ F,0,0,1,0,0,0,1 @ F,0,0,1,0,0,0,1 @ F,0,0,1,0,0,0,1 @ F,0,0,1,0,0,0,1 @ F,0,0,1,0,0,0,1 @ F,0,0,1,0,0,0,1 @ F,0,0,1,0,0,0,1 @ F,0,0,1,0,0,0,1 @ F,0,0,1,0,0,0,1 @ F,0,0,1,0,0,0,1 @ F,0,0,1,0,0,0,1 @ F,0,0,1,0,0,0,1 @ F,0,0,1,0,0,0,1 @ F,0,0,1,0,0,0,1 @ F,0,0,1,0,0,0,1 @ F,0,0,1,0,0,0,1 @ F,0,0,1,0,0.301582,0,1 @ F,0,0,1,0,0.301582,0,1 @ F,0,0,1,0,0,0,1 @ F,0,0,1,0,0,0,1 @ F,0,0,1,0,0,0,1 @ F,0,0,1,0,0,0,1 @ F,0,0,1,0,0,0,1 @ F,0,0,1,0,0,0,1 @ F,0,0,1,0,0,0,1 @ F,0,0,1,0,0,0,1 @ F,0,0,1,0,0.34363537,0,1 @ F,0,0,1,0,0.54766411,0,1 @ F,0,0,1,0,0,0,1 @ F,0,0,1,0,0,0,1 @ F,0,0,1,0,0,0,1 @ F,0,0,1,0,0,0,1 @ F,0,0,1,0,0,0,1 @ F,0,0,1,0,0,0,1 @ F,0,0,1,0,0,0,1 @ F,0,0,1,0,0,0,1 @ F,0,0,1,0,0,0,1 @ F,0,0,1,0,0,0,1 @ F,0,0,1,0,0,0,1 @ F,0,0,1,0,0,0,1 @ F,0,0,1,0,0,0,1 @ F,0,0,1,0,0,0,1 @ F,0,0,1,0,0,0,1 @ F,0,0,1,0,0,0,1 @ F,0,0,1,0,0,0,1 @ F,0,0,1,0,0,0,1 @ F,0,0,1,0,0,0,1 @ F,0,0,1,0,0,0,1 @ F,0,0,1,0,0,0,1 @ F,0,0,1,0,0,0,1 @ F,0,0,1,0,0,0,1 @ F,0,0,1,0,0,0,1 @ F,0,0,1,0,0,0,1 @ F,0,0,1,0,0,0,1 @ F,0,0,1,0,0,0,1 @ F,0,0,1,0,0,0,1 @ F,0,0,1,0,0,0,1 @ F,0,0,1,0,0,0,1 @ F,0,0,1,0,0,0,1 @ F,0,0,1,0,0,0,1 @ F,0,0,1,0,0,0,1 @ F,0,0,1,0,0,0,1 @ F,0,0,1,0,0,0,1 @ F,0,0,1,0,0,0,1 @ F,0,0,1,0,0,0,1 @ F,0,0,1,0,0,0,1 @ F,0,0,1,0,0,0,1 @ F,0,0,1,0,0,0,1 @ F,0,0,1,0,0,0,1 @ F,0,0,1,0,0,0,1 @ F,0,0,1,0,0,0,1 @ F,0,0,1,0,0,0,1 @ F,0,0,1,0,0,0,1 @ F,0,0,1,0,0,0,1 @ F,0,0,1,0,0,0,1 @ F,0,0,1,0,0,0,1 @ F,0,0,1,0,0,0,1 @ F,0,0,1,0,0,0,1 @ F,0,0,1,0,0,0,1 @ F,0,0,1,0,0,0,1 @ F,0,0,1,0,0,0,1 @ F,0,0,1,0,0,0,1 @ F,0,0,1,0,0,0,1 @ F,0,0,1,0,0,0,1 @ F,0,0,1,0,0,0,1 @ F,0,0,1,0,0,0,1 @ F,0,0,1,0,0,0,1 @ F,0,0,1,0,0,0,1 @ F,0,0,1,0,0,0,1 @ F,0,0,1,0,0,0,1 @ F,0,0,1,0,0,0,1 @ F,0,0,1,0,0,0,1 @ F,0,0,1,0,0,0,1 @ F,0,0,1,0,0,0,1 @ F,0,0,1,0,0,0,1 @ F,0,0,1,0,0,0,1 @ F,0,0,1,0,0,0,1 @ F,0,0,1,0,0,0,1 @ F,0,0,1,0,0,0,1 @ F,0,0,1,0,0,0,1 @ F,0,0,1,0,0,0,1 @ F,0,0,1,0,0,0,1 @ F,0,0,1,0,0,0,1 @ F,0,0,1,0,0,0,1 @ F,0,0,1,0,0,0,1"
       radius="0"
       unit="px"
       method="auto"
       mode="F"
       chamfer_steps="1"
       flexible="false"
       use_knot_distance="true"
       apply_no_radius="true"
       apply_with_radius="true"
       only_selected="false"
       hide_knots="false" />
  </defs>
  <sodipodi:namedview
     id="namedview1"
     pagecolor="#ffffff"
     bordercolor="#999999"
     borderopacity="1"
     inkscape:showpageshadow="2"
     inkscape:pageopacity="0"
     inkscape:pagecheckerboard="0"
     inkscape:deskcolor="#d1d1d1"
     showguides="true"
     inkscape:zoom="0.33101436"
     inkscape:cx="-613.26644"
     inkscape:cy="-228.08678"
     inkscape:window-width="1920"
     inkscape:window-height="947"
     inkscape:window-x="1680"
     inkscape:window-y="32"
     inkscape:window-maximized="1"
     inkscape:current-layer="svg1" />
  <rect
     style="opacity:1;fill:#808080;fill-opacity:1;stroke:#000000;stroke-width:0.6;stroke-dasharray:none;stroke-opacity:1"
     id="rect41"
     width="23.4"
     height="23.4"
     x="0.29999924"
     y="0.30000019"
     ry="2.3584671"
     inkscape:export-filename="../Documents/paper.svg"
     inkscape:export-xdpi="96"
     inkscape:export-ydpi="96" />
  <g
     id="g40"
     transform="matrix(0.81735572,0,0,0.81618728,56.497003,21.86939)"
     style="stroke-width:1.22433">
    <path
       d="m -61.563332,-18.215928 v 7.460742 h 0.01818 c -0.0076,0.08465 -0.01364,0.169421 -0.01818,0.254282 -10e-7,0.339093 0.02423,0.6777553 0.0725,1.0133963 0.04826,0.33562 0.12045,0.667368 0.216004,0.992706 0.09557,0.32535 0.214271,0.643465 0.35519,0.951906 0.140905,0.308426 0.30367,0.606399 0.487048,0.891641 0.183388,0.285265 0.386928,0.557074 0.609063,0.813344 0.22213,0.256259 0.462292,0.496333 0.718644,0.718384 0.256364,0.222053 0.528272,0.425519 0.81364,0.608841 0.285345,0.183312 0.583427,0.346017 0.891964,0.486872 0.308554,0.140867 0.626784,0.259523 0.952253,0.35506 0.325456,0.09553 0.657325,0.167678 0.993067,0.215926 0.335762,0.04826 0.674548,0.07248 1.013763,0.07248 0.339214,1e-6 0.678,-0.02423 1.013762,-0.07248 0.335742,-0.04826 0.66761,-0.12041 0.993067,-0.215926 0.325469,-0.09554 0.643699,-0.214193 0.952253,-0.35506 0.308537,-0.140855 0.606619,-0.30356 0.891965,-0.486872 0.285368,-0.183322 0.557275,-0.386788 0.813639,-0.608841 0.256351,-0.222051 0.496512,-0.462125 0.718644,-0.718384 0.222134,-0.25627 0.425675,-0.528079 0.609063,-0.813344 0.183379,-0.285242 0.346143,-0.583215 0.487048,-0.891641 0.14092,-0.308441 0.259618,-0.626556 0.35519,-0.951906 0.09555,-0.325338 0.167739,-0.657086 0.216003,-0.992706 0.04827,-0.335641 0.0725,-0.6743033 0.0725,-1.0133963 -6.4e-4,-0.08479 -0.0029,-0.169566 -0.0065,-0.254282 h 0.0065 v -7.460742 z"
       style="fill:#ffffff;fill-opacity:1;stroke:#000000;stroke-width:0.734599"
       id="path13" />
    <rect
       style="fill:#ffffff;fill-opacity:1;stroke:#000000;stroke-width:0.7346;stroke-dasharray:none;stroke-opacity:1"
       id="rect13"
       width="3.1115682"
       height="6.849124"
       x="-61.563332"
       y="-19.759171"
       ry="1.5557841" />
    <rect
       style="fill:#ffffff;fill-opacity:1;stroke:#000000;stroke-width:0.734601;stroke-dasharray:none;stroke-opacity:1"
       id="rect14"
       width="3.1115682"
       height="7.893734"
       x="-57.851765"
       y="-20.803782"
       ry="1.5557841" />
    <rect
       style="fill:#ffffff;fill-opacity:1;stroke:#000000;stroke-width:0.734601;stroke-dasharray:none;stroke-opacity:1"
       id="rect15"
       width="3.1115682"
       height="7.893734"
       x="-54.140194"
       y="-20.803782"
       ry="1.5557841" />
    <rect
       style="fill:#ffffff;fill-opacity:1;stroke:#000000;stroke-width:0.734601;stroke-dasharray:none;stroke-opacity:1"
       id="rect16"
       width="3.1115682"
       height="7.893733"
       x="-50.428627"
       y="-20.803782"
       ry="1.5557841" />
    <path
       id="path21"
       style="color:#000000;fill:#ffffff;fill-opacity:1;stroke-width:1.49899;-inkscape-stroke:none"
       d="m -53.266322,-16.85691 c -0.05387,0 -0.107123,0.0027 -0.159551,0.008 -0.05243,0.0053 -0.104075,0.01317 -0.154805,0.0235 -0.05073,0.01033 -0.100521,0.0231 -0.149297,0.0382 -0.04877,0.01511 -0.09652,0.03252 -0.143086,0.05215 -0.04656,0.01963 -0.09196,0.0415 -0.136054,0.06539 -0.0441,0.02389 -0.08689,0.04985 -0.128262,0.07775 -0.04137,0.0279 -0.08132,0.05776 -0.119707,0.08941 -0.03839,0.03166 -0.07524,0.0651 -0.110391,0.100253 -0.03515,0.03515 -0.0686,0.072 -0.100254,0.110391 -0.03165,0.03839 -0.06151,0.07834 -0.08941,0.119707 -0.0279,0.04137 -0.05386,0.08417 -0.07775,0.128262 -0.0239,0.0441 -0.0457,0.08949 -0.06533,0.136054 -0.01963,0.04656 -0.0371,0.09431 -0.05221,0.143086 -0.01511,0.04877 -0.02787,0.09857 -0.0382,0.149297 -0.01033,0.05073 -0.0182,0.102378 -0.0235,0.154805 -0.0053,0.05243 -0.008,0.105623 -0.008,0.159492 0,0.05387 0.0027,0.107064 0.008,0.159492 0.0053,0.05243 0.01317,0.104076 0.0235,0.154805 0.01033,0.05073 0.0231,0.100581 0.0382,0.149356 0.01511,0.04878 0.03258,0.09652 0.05221,0.143085 0.01963,0.04656 0.04144,0.09196 0.06533,0.136055 0.02389,0.0441 0.04985,0.08689 0.07775,0.128262 0.0279,0.04137 0.05776,0.08132 0.08941,0.119707 0.03166,0.03839 0.0651,0.07518 0.100254,0.110332 0.03515,0.03515 0.072,0.06866 0.110391,0.100312 0.03839,0.03166 0.07834,0.06151 0.119707,0.08941 0.04137,0.0279 0.08417,0.05386 0.128262,0.07775 0.0441,0.0239 0.08949,0.0457 0.136054,0.06533 0.04656,0.01963 0.09431,0.03704 0.143086,0.05215 0.04878,0.01511 0.09857,0.02793 0.149297,0.03826 0.05073,0.01033 0.102377,0.0182 0.154805,0.0235 0.05243,0.0053 0.105682,0.008 0.159551,0.008 h 2.837695 v 1.31291 c -0.07964,0.01979 -0.158219,0.04364 -0.23543,0.07143 -0.14607,0.06051 -0.285847,0.135224 -0.417304,0.223067 -0.13145,0.08784 -0.253954,0.188381 -0.365743,0.300175 -0.111794,0.111788 -0.212338,0.234293 -0.300175,0.365743 -0.08784,0.131459 -0.162559,0.271234 -0.223067,0.417304 -0.0605,0.146074 -0.106504,0.297743 -0.137344,0.452813 -0.03085,0.155073 -0.0464,0.312806 -0.04641,0.470918 2e-6,0.02734 0.0031,0.0545 0.004,0.0818 h 4.827481 c 0.0025,-0.03617 0.0055,-0.07221 0.0055,-0.109043 v -5.142941 c 0,-0.05387 -0.0027,-0.107064 -0.008,-0.159492 -0.0053,-0.05243 -0.01311,-0.104075 -0.02344,-0.154805 -0.01032,-0.05071 -0.02316,-0.100539 -0.03826,-0.149297 v -5.8e-5 c -0.01511,-0.04878 -0.03252,-0.09646 -0.05215,-0.143028 -0.01963,-0.04656 -0.04144,-0.09196 -0.06533,-0.136054 -0.02389,-0.0441 -0.04991,-0.08689 -0.07781,-0.128262 -0.0279,-0.04137 -0.0577,-0.08132 -0.08936,-0.119707 -0.03166,-0.03839 -0.06516,-0.07524 -0.100312,-0.110391 -0.03515,-0.03515 -0.07194,-0.0686 -0.110332,-0.100253 -0.03839,-0.03166 -0.07834,-0.06151 -0.119707,-0.08941 -0.04137,-0.0279 -0.08423,-0.05386 -0.12832,-0.07775 -0.0441,-0.02389 -0.08943,-0.04576 -0.135997,-0.06539 h -5.8e-5 c -0.04655,-0.01962 -0.09427,-0.03705 -0.143027,-0.05215 -0.04877,-0.01511 -0.09862,-0.02787 -0.149356,-0.0382 -0.05073,-0.01033 -0.102377,-0.0182 -0.154805,-0.0235 -0.05243,-0.0053 -0.105623,-0.008 -0.159492,-0.008 z" />
    <path
       id="path22"
       style="color:#000000;fill:#000000;stroke-width:1.22433;-inkscape-stroke:none"
       d="m 13.27541,-13.777324 c -0.06389,0 -0.126983,0.0034 -0.189492,0.0098 -0.06238,0.0063 -0.124962,0.01697 -0.185508,0.0293 -0.06049,0.01232 -0.119545,0.02692 -0.177773,0.04494 -0.05812,0.01801 -0.114218,0.03898 -0.169922,0.06246 -0.05573,0.0235 -0.11156,0.04971 -0.164063,0.07816 -0.05267,0.02853 -0.102992,0.05848 -0.152343,0.09176 -0.04941,0.03332 -0.0968,0.06974 -0.142559,0.107461 -0.04569,0.03768 -0.09082,0.0771 -0.132832,0.119121 -0.04199,0.04199 -0.08142,0.0871 -0.119121,0.132832 -0.03772,0.04575 -0.07215,0.09316 -0.105469,0.142559 -0.0333,0.04937 -0.06523,0.09971 -0.09375,0.152343 -0.02858,0.05273 -0.0547,0.106607 -0.07811,0.162129 -0.0234,0.05551 -0.04445,0.11351 -0.06252,0.171856 -0.01807,0.05831 -0.03263,0.117274 -0.04494,0.177715 -0.01233,0.06055 -0.02101,0.121254 -0.02731,0.183632 -0.0063,0.06249 -0.0098,0.127475 -0.0098,0.191368 0,0.06389 0.0034,0.127005 0.0098,0.189492 0.0063,0.06238 0.01497,0.123028 0.02731,0.183574 0.01231,0.06044 0.02689,0.119421 0.04494,0.177715 0.01808,0.05837 0.03913,0.116427 0.06252,0.171914 0.02341,0.05553 0.04955,0.109382 0.07811,0.16207 0.02853,0.05267 0.06047,0.102993 0.09375,0.152344 0.03332,0.04941 0.06774,0.0988 0.105469,0.144551 0.03777,0.0458 0.07722,0.08894 0.119121,0.13084 0.04187,0.04187 0.08696,0.08136 0.132832,0.119179 0.0458,0.03777 0.09319,0.0741 0.142559,0.107403 0.04937,0.0333 0.09971,0.0633 0.152343,0.09182 0.05273,0.02858 0.108544,0.0547 0.164063,0.07811 0.05571,0.02349 0.111791,0.04451 0.169922,0.06252 0.05808,0.01799 0.117101,0.03259 0.177773,0.04494 0.06055,0.01233 0.123127,0.02299 0.185508,0.0293 0.06251,0.0063 0.125598,0.0098 0.189492,0.0098 h 2.53711 v 0.7890816 c -0.01223,0.00421 -0.02497,0.00734 -0.03715,0.011719 l -0.0059,0.00387 -0.0078,0.00199 c -0.164221,0.068029 -0.320951,0.1511981 -0.46875,0.2499609 -0.147785,0.098756 -0.284473,0.2122193 -0.410157,0.3379102 -0.125688,0.1256821 -0.239154,0.2643011 -0.33791,0.4120898 -0.09875,0.1477928 -0.183923,0.3045213 -0.251953,0.46875 -0.06802,0.1642278 -0.119604,0.3354208 -0.154277,0.5097656 -0.03468,0.1743332 -0.05079,0.3515674 -0.0508,0.529336 0.04477,8e-7 0.136923,0.081035 0.303482,0.081035 0.165817,0 0.251361,-0.081151 0.296234,-0.081152 9e-6,-0.1384548 0.014,-0.2762776 0.04102,-0.4120898 0.02701,-0.1357946 0.06614,-0.2705179 0.119121,-0.3984375 0.05299,-0.1279107 0.118367,-0.2501488 0.195293,-0.3652735 0.07692,-0.1151108 0.165773,-0.2223799 0.263672,-0.3202734 0.09789,-0.097899 0.205218,-0.1848144 0.320332,-0.2617383 0.115116,-0.076923 0.237296,-0.1423021 0.365215,-0.195293 0.06332,-0.022314 0.128205,-0.042404 0.193359,-0.058594 a 0.37372627,0.37372627 119.51147 0 0 0.226582,-0.4002954 v -0.9544432 a 0.54766411,0.54766411 45 0 0 -0.547664,-0.547664 H 13.27541 c -0.04385,0 -0.08656,-0.0035 -0.128906,-0.0078 -0.04247,-0.0043 -0.08413,-0.01118 -0.125039,-0.01951 -0.04078,-0.0083 -0.08157,-0.01713 -0.121055,-0.02936 -0.03942,-0.01221 -0.07784,-0.02717 -0.115254,-0.04295 -0.03761,-0.01585 -0.07392,-0.03351 -0.109394,-0.05273 -0.03555,-0.01926 -0.07011,-0.03996 -0.103477,-0.06246 -0.03336,-0.0225 -0.06669,-0.04674 -0.09768,-0.07231 -0.03091,-0.02548 -0.05946,-0.05167 -0.08789,-0.0801 -0.02841,-0.02841 -0.05649,-0.05885 -0.08203,-0.08982 -0.02558,-0.03102 -0.04977,-0.06235 -0.07225,-0.09568 -0.02252,-0.03339 -0.04327,-0.06801 -0.06252,-0.103535 -0.01923,-0.0355 -0.03689,-0.07175 -0.05273,-0.109336 -0.01563,-0.03708 -0.029,-0.07666 -0.04102,-0.115254 v -0.002 c -0.01191,-0.03869 -0.02301,-0.07879 -0.03123,-0.119179 -0.0083,-0.04091 -0.01528,-0.0825 -0.01957,-0.124981 -0.0043,-0.04237 -0.0059,-0.08506 -0.0059,-0.128906 0,-0.04385 0.0016,-0.08847 0.0059,-0.13084 0.0043,-0.04247 0.01124,-0.08413 0.01957,-0.125039 0.0084,-0.04101 0.01908,-0.07989 0.03123,-0.119121 0.01215,-0.03921 0.02516,-0.07764 0.04102,-0.115254 0.01585,-0.03761 0.03351,-0.07585 0.05273,-0.111328 0.01926,-0.03555 0.04002,-0.07011 0.06252,-0.103477 0.02248,-0.03333 0.04667,-0.06471 0.07225,-0.09574 0.0256,-0.03105 0.05372,-0.06151 0.08203,-0.08982 0.02829,-0.02829 0.0568,-0.05439 0.08789,-0.08004 0.03102,-0.02557 0.06435,-0.04983 0.09768,-0.07231 0.03339,-0.02252 0.06794,-0.04327 0.103477,-0.06252 0.03568,-0.01933 0.07201,-0.03692 0.109394,-0.05268 0.03743,-0.01578 0.07583,-0.0308 0.115254,-0.04301 0.03932,-0.01217 0.08008,-0.02095 0.121055,-0.0293 0.04091,-0.0083 0.08256,-0.01522 0.125039,-0.01951 0.04235,-0.0043 0.08506,-0.0059 0.128906,-0.0059 v 5.8e-5 h 4.392539 c 0.04384,0 0.08853,0.0016 0.130899,0.0059 0.04248,0.0043 0.08407,0.01118 0.12498,0.01951 0.04105,0.0084 0.07995,0.01716 0.119121,0.0293 0.03928,0.01216 0.07773,0.02719 0.115254,0.04301 0.03729,0.01572 0.07358,0.03333 0.109395,0.05273 0.03565,0.01932 0.07022,0.04003 0.103476,0.06246 0.03336,0.0225 0.06669,0.04675 0.09768,0.07231 0.03093,0.02551 0.05946,0.05161 0.08789,0.08004 0.02841,0.02841 0.05651,0.05893 0.08203,0.08988 0.02545,0.03085 0.04966,0.06219 0.07225,0.09568 0.02263,0.03356 0.04337,0.06819 0.06252,0.103535 0.01923,0.0355 0.03689,0.07374 0.05273,0.111328 0.01582,0.03753 0.02883,0.07585 0.04102,0.115196 0.01223,0.03949 0.02295,0.07849 0.03123,0.119179 0.0083,0.04069 0.01525,0.08228 0.01957,0.124981 0.0043,0.04237 0.0059,0.08699 0.0059,0.13084 v 5.1425973 c 0,0.036889 -0.002,0.072704 -0.0049,0.108457 h 0.600117 c 0.0016,-0.036068 0.0045,-0.071837 0.0045,-0.1083984 v -5.1425979 c 0,-0.06389 -0.0016,-0.128939 -0.0079,-0.191426 -0.0063,-0.06216 -0.01692,-0.122805 -0.0293,-0.183574 -0.0086,-0.04205 -0.01993,-0.08226 -0.03123,-0.123047 v -0.01172 l -0.01365,-0.04295 c -0.01803,-0.05822 -0.03908,-0.11631 -0.06252,-0.171914 -0.02341,-0.05553 -0.04956,-0.109382 -0.07811,-0.16207 -0.02863,-0.05285 -0.05865,-0.103158 -0.09182,-0.152344 -0.03321,-0.04924 -0.06953,-0.0967 -0.107402,-0.142617 -0.0378,-0.04583 -0.07729,-0.09088 -0.11918,-0.132773 -0.04187,-0.04187 -0.08692,-0.08138 -0.132773,-0.11918 -0.0458,-0.03777 -0.09325,-0.0741 -0.142618,-0.107402 -0.04948,-0.03337 -0.09982,-0.06336 -0.152343,-0.09182 -0.05238,-0.02838 -0.106224,-0.05456 -0.162071,-0.07811 l -0.05666,-0.02344 h -0.0078 c -0.03538,-0.0134 -0.071,-0.02781 -0.107402,-0.03908 -0.05837,-0.01808 -0.117358,-0.03258 -0.177774,-0.04488 -0.06055,-0.01233 -0.123127,-0.02299 -0.185507,-0.0293 -0.06249,-0.0063 -0.1256,-0.0098 -0.189493,-0.0098 z"
       inkscape:path-effect="#path-effect25"
       inkscape:original-d="m 13.27541,-13.777324 c -0.06389,0 -0.126983,0.0034 -0.189492,0.0098 -0.06238,0.0063 -0.124962,0.01697 -0.185508,0.0293 -0.06049,0.01232 -0.119545,0.02692 -0.177773,0.04494 -0.05812,0.01801 -0.114218,0.03898 -0.169922,0.06246 -0.05573,0.0235 -0.11156,0.04971 -0.164063,0.07816 -0.05267,0.02853 -0.102992,0.05848 -0.152343,0.09176 -0.04941,0.03332 -0.0968,0.06974 -0.142559,0.107461 -0.04569,0.03768 -0.09082,0.0771 -0.132832,0.119121 -0.04199,0.04199 -0.08142,0.0871 -0.119121,0.132832 -0.03772,0.04575 -0.07215,0.09316 -0.105469,0.142559 -0.0333,0.04937 -0.06523,0.09971 -0.09375,0.152343 -0.02858,0.05273 -0.0547,0.106607 -0.07811,0.162129 -0.0234,0.05551 -0.04445,0.11351 -0.06252,0.171856 -0.01807,0.05831 -0.03263,0.117274 -0.04494,0.177715 -0.01233,0.06055 -0.02101,0.121254 -0.02731,0.183632 -0.0063,0.06249 -0.0098,0.127475 -0.0098,0.191368 0,0.06389 0.0034,0.127005 0.0098,0.189492 0.0063,0.06238 0.01497,0.123028 0.02731,0.183574 0.01231,0.06044 0.02689,0.119421 0.04494,0.177715 0.01808,0.05837 0.03913,0.116427 0.06252,0.171914 0.02341,0.05553 0.04955,0.109382 0.07811,0.16207 0.02853,0.05267 0.06047,0.102993 0.09375,0.152344 0.03332,0.04941 0.06774,0.0988 0.105469,0.144551 0.03777,0.0458 0.07722,0.08894 0.119121,0.13084 0.04187,0.04187 0.08696,0.08136 0.132832,0.119179 0.0458,0.03777 0.09319,0.0741 0.142559,0.107403 0.04937,0.0333 0.09971,0.0633 0.152343,0.09182 0.05273,0.02858 0.108544,0.0547 0.164063,0.07811 0.05571,0.02349 0.111791,0.04451 0.169922,0.06252 0.05808,0.01799 0.117101,0.03259 0.177773,0.04494 0.06055,0.01233 0.123127,0.02299 0.185508,0.0293 0.06251,0.0063 0.125598,0.0098 0.189492,0.0098 h 2.53711 v 0.7890816 c -0.01223,0.00421 -0.02497,0.00734 -0.03715,0.011719 l -0.0059,0.00387 -0.0078,0.00199 c -0.164221,0.068029 -0.320951,0.1511981 -0.46875,0.2499609 -0.147785,0.098756 -0.284473,0.2122193 -0.410157,0.3379102 -0.125688,0.1256821 -0.239154,0.2643011 -0.33791,0.4120898 -0.09875,0.1477928 -0.183923,0.3045213 -0.251953,0.46875 -0.06802,0.1642278 -0.119604,0.3354208 -0.154277,0.5097656 -0.03468,0.1743332 -0.05079,0.3515674 -0.0508,0.529336 2e-6,0.027048 0.0011,0.054019 0.0019,0.081035 h 0.601816 c -0.0011,-0.027075 -0.004,-0.054023 -0.004,-0.081152 9e-6,-0.1384548 0.014,-0.2762776 0.04102,-0.4120898 0.02701,-0.1357946 0.06614,-0.2705179 0.119121,-0.3984375 0.05299,-0.1279107 0.118367,-0.2501488 0.195293,-0.3652735 0.07692,-0.1151108 0.165773,-0.2223799 0.263672,-0.3202734 0.09789,-0.097899 0.205218,-0.1848144 0.320332,-0.2617383 0.115116,-0.076923 0.237296,-0.1423021 0.365215,-0.195293 0.06332,-0.022314 0.128205,-0.042404 0.193359,-0.058594 l 0.226582,-0.05666 V -10.664062 H 13.27541 c -0.04385,0 -0.08656,-0.0035 -0.128906,-0.0078 -0.04247,-0.0043 -0.08413,-0.01118 -0.125039,-0.01951 -0.04078,-0.0083 -0.08157,-0.01713 -0.121055,-0.02936 -0.03942,-0.01221 -0.07784,-0.02717 -0.115254,-0.04295 -0.03761,-0.01585 -0.07392,-0.03351 -0.109394,-0.05273 -0.03555,-0.01926 -0.07011,-0.03996 -0.103477,-0.06246 -0.03336,-0.0225 -0.06669,-0.04674 -0.09768,-0.07231 -0.03091,-0.02548 -0.05946,-0.05167 -0.08789,-0.0801 -0.02841,-0.02841 -0.05649,-0.05885 -0.08203,-0.08982 -0.02558,-0.03102 -0.04977,-0.06235 -0.07225,-0.09568 -0.02252,-0.03339 -0.04327,-0.06801 -0.06252,-0.103535 -0.01923,-0.0355 -0.03689,-0.07175 -0.05273,-0.109336 -0.01563,-0.03708 -0.029,-0.07666 -0.04102,-0.115254 v -0.002 c -0.01191,-0.03869 -0.02301,-0.07879 -0.03123,-0.119179 -0.0083,-0.04091 -0.01528,-0.0825 -0.01957,-0.124981 -0.0043,-0.04237 -0.0059,-0.08506 -0.0059,-0.128906 0,-0.04385 0.0016,-0.08847 0.0059,-0.13084 0.0043,-0.04247 0.01124,-0.08413 0.01957,-0.125039 0.0084,-0.04101 0.01908,-0.07989 0.03123,-0.119121 0.01215,-0.03921 0.02516,-0.07764 0.04102,-0.115254 0.01585,-0.03761 0.03351,-0.07585 0.05273,-0.111328 0.01926,-0.03555 0.04002,-0.07011 0.06252,-0.103477 0.02248,-0.03333 0.04667,-0.06471 0.07225,-0.09574 0.0256,-0.03105 0.05372,-0.06151 0.08203,-0.08982 0.02829,-0.02829 0.0568,-0.05439 0.08789,-0.08004 0.03102,-0.02557 0.06435,-0.04983 0.09768,-0.07231 0.03339,-0.02252 0.06794,-0.04327 0.103477,-0.06252 0.03568,-0.01933 0.07201,-0.03692 0.109394,-0.05268 0.03743,-0.01578 0.07583,-0.0308 0.115254,-0.04301 0.03932,-0.01217 0.08008,-0.02095 0.121055,-0.0293 0.04091,-0.0083 0.08256,-0.01522 0.125039,-0.01951 0.04235,-0.0043 0.08506,-0.0059 0.128906,-0.0059 v 5.8e-5 h 4.392539 c 0.04384,0 0.08853,0.0016 0.130899,0.0059 0.04248,0.0043 0.08407,0.01118 0.12498,0.01951 0.04105,0.0084 0.07995,0.01716 0.119121,0.0293 0.03928,0.01216 0.07773,0.02719 0.115254,0.04301 0.03729,0.01572 0.07358,0.03333 0.109395,0.05273 0.03565,0.01932 0.07022,0.04003 0.103476,0.06246 0.03336,0.0225 0.06669,0.04675 0.09768,0.07231 0.03093,0.02551 0.05946,0.05161 0.08789,0.08004 0.02841,0.02841 0.05651,0.05893 0.08203,0.08988 0.02545,0.03085 0.04966,0.06219 0.07225,0.09568 0.02263,0.03356 0.04337,0.06819 0.06252,0.103535 0.01923,0.0355 0.03689,0.07374 0.05273,0.111328 0.01582,0.03753 0.02883,0.07585 0.04102,0.115196 0.01223,0.03949 0.02295,0.07849 0.03123,0.119179 0.0083,0.04069 0.01525,0.08228 0.01957,0.124981 0.0043,0.04237 0.0059,0.08699 0.0059,0.13084 v 5.1425973 c 0,0.036889 -0.002,0.072704 -0.0049,0.108457 h 0.600117 c 0.0016,-0.036068 0.0045,-0.071837 0.0045,-0.1083984 v -5.1425979 c 0,-0.06389 -0.0016,-0.128939 -0.0079,-0.191426 -0.0063,-0.06216 -0.01692,-0.122805 -0.0293,-0.183574 -0.0086,-0.04205 -0.01993,-0.08226 -0.03123,-0.123047 v -0.01172 l -0.01365,-0.04295 c -0.01803,-0.05822 -0.03908,-0.11631 -0.06252,-0.171914 -0.02341,-0.05553 -0.04956,-0.109382 -0.07811,-0.16207 -0.02863,-0.05285 -0.05865,-0.103158 -0.09182,-0.152344 -0.03321,-0.04924 -0.06953,-0.0967 -0.107402,-0.142617 -0.0378,-0.04583 -0.07729,-0.09088 -0.11918,-0.132773 -0.04187,-0.04187 -0.08692,-0.08138 -0.132773,-0.11918 -0.0458,-0.03777 -0.09325,-0.0741 -0.142618,-0.107402 -0.04948,-0.03337 -0.09982,-0.06336 -0.152343,-0.09182 -0.05238,-0.02838 -0.106224,-0.05456 -0.162071,-0.07811 l -0.05666,-0.02344 h -0.0078 c -0.03538,-0.0134 -0.071,-0.02781 -0.107402,-0.03908 -0.05837,-0.01808 -0.117358,-0.03258 -0.177774,-0.04488 -0.06055,-0.01233 -0.123127,-0.02299 -0.185507,-0.0293 -0.06249,-0.0063 -0.1256,-0.0098 -0.189493,-0.0098 z"
       transform="translate(-66.541381,-3.3803477)" />
  </g>
</svg>
