<?xml version="1.0" encoding="UTF-8" standalone="no"?>
<!-- Uploaded to: SVG Repo, www.svgrepo.com, Generator: SVG Repo Mixer Tools -->

<svg
   width="800.00006"
   height="799.99994"
   viewBox="0 0 24.000002 23.999998"
   fill="none"
   version="1.1"
   id="svg1"
   sodipodi:docname="rock-paper-scissors.svg"
   inkscape:version="1.3 (0e150ed6c4, 2023-07-21)"
   xmlns:inkscape="http://www.inkscape.org/namespaces/inkscape"
   xmlns:sodipodi="http://sodipodi.sourceforge.net/DTD/sodipodi-0.dtd"
   xmlns="http://www.w3.org/2000/svg"
   xmlns:svg="http://www.w3.org/2000/svg">
  <defs
     id="defs1">
    <inkscape:path-effect
       effect="fillet_chamfer"
       id="path-effect50"
       is_visible="true"
       lpeversion="1"
       nodesatellites_param="F,0,0,1,0,0,0,1 @ F,0,0,1,0,0,0,1 @ F,0,0,1,0,0,0,1 @ F,0,0,1,0,0,0,1 @ F,0,0,1,0,0,0,1 @ F,0,0,1,0,0,0,1 @ F,0,0,1,0,0,0,1 @ F,0,0,1,0,0,0,1 @ F,0,0,1,0,0,0,1 @ F,0,0,1,0,0,0,1 @ F,0,0,1,0,0,0,1 @ F,0,0,1,0,0,0,1 @ F,0,0,1,0,0,0,1 @ F,0,0,1,0,0,0,1 @ F,0,0,1,0,0,0,1 @ F,0,0,1,0,0,0,1 @ F,0,0,1,0,0,0,1 @ F,0,0,1,0,0,0,1 @ F,0,0,1,0,0,0,1 @ F,0,0,1,0,0,0,1 @ F,0,0,1,0,0,0,1 @ F,0,0,1,0,0,0,1 @ F,0,0,1,0,0,0,1 @ F,0,0,1,0,0,0,1 @ F,0,0,1,0,0,0,1 @ F,0,0,1,0,0,0,1 @ F,0,0,1,0,0,0,1 @ F,0,0,1,0,0,0,1 @ F,0,0,1,0,0,0,1 @ F,0,0,1,0,0,0,1 @ F,0,0,1,0,0,0,1 @ F,0,0,1,0,0,0,1 @ F,0,0,1,0,0,0,1 @ F,0,0,1,0,0,0,1 @ F,0,0,1,0,0,0,1 @ F,0,0,1,0,0,0,1 @ F,0,0,1,0,0,0,1 @ F,0,0,1,0,0,0,1 @ F,0,0,1,0,0,0,1 @ F,0,0,1,0,0,0,1 @ F,0,0,1,0,0,0,1 @ F,0,0,1,0,0,0,1 @ F,0,0,1,0,0,0,1 @ F,0,0,1,0,0,0,1 @ F,0,0,1,0,0.301582,0,1 @ F,0,0,1,0,0.301582,0,1 @ F,0,0,1,0,0,0,1 @ F,0,0,1,0,0,0,1 @ F,0,0,1,0,0,0,1 @ F,0,0,1,0,0,0,1 @ F,0,0,1,0,0,0,1 @ F,0,0,1,0,0,0,1 @ F,0,0,1,0,0,0,1 @ F,0,0,1,0,0,0,1 @ F,0,0,1,0,0.34363537,0,1 @ F,0,0,1,0,0.54766411,0,1 @ F,0,0,1,0,0,0,1 @ F,0,0,1,0,0,0,1 @ F,0,0,1,0,0,0,1 @ F,0,0,1,0,0,0,1 @ F,0,0,1,0,0,0,1 @ F,0,0,1,0,0,0,1 @ F,0,0,1,0,0,0,1 @ F,0,0,1,0,0,0,1 @ F,0,0,1,0,0,0,1 @ F,0,0,1,0,0,0,1 @ F,0,0,1,0,0,0,1 @ F,0,0,1,0,0,0,1 @ F,0,0,1,0,0,0,1 @ F,0,0,1,0,0,0,1 @ F,0,0,1,0,0,0,1 @ F,0,0,1,0,0,0,1 @ F,0,0,1,0,0,0,1 @ F,0,0,1,0,0,0,1 @ F,0,0,1,0,0,0,1 @ F,0,0,1,0,0,0,1 @ F,0,0,1,0,0,0,1 @ F,0,0,1,0,0,0,1 @ F,0,0,1,0,0,0,1 @ F,0,0,1,0,0,0,1 @ F,0,0,1,0,0,0,1 @ F,0,0,1,0,0,0,1 @ F,0,0,1,0,0,0,1 @ F,0,0,1,0,0,0,1 @ F,0,0,1,0,0,0,1 @ F,0,0,1,0,0,0,1 @ F,0,0,1,0,0,0,1 @ F,0,0,1,0,0,0,1 @ F,0,0,1,0,0,0,1 @ F,0,0,1,0,0,0,1 @ F,0,0,1,0,0,0,1 @ F,0,0,1,0,0,0,1 @ F,0,0,1,0,0,0,1 @ F,0,0,1,0,0,0,1 @ F,0,0,1,0,0,0,1 @ F,0,0,1,0,0,0,1 @ F,0,0,1,0,0,0,1 @ F,0,0,1,0,0,0,1 @ F,0,0,1,0,0,0,1 @ F,0,0,1,0,0,0,1 @ F,0,0,1,0,0,0,1 @ F,0,0,1,0,0,0,1 @ F,0,0,1,0,0,0,1 @ F,0,0,1,0,0,0,1 @ F,0,0,1,0,0,0,1 @ F,0,0,1,0,0,0,1 @ F,0,0,1,0,0,0,1 @ F,0,0,1,0,0,0,1 @ F,0,0,1,0,0,0,1 @ F,0,0,1,0,0,0,1 @ F,0,0,1,0,0,0,1 @ F,0,0,1,0,0,0,1 @ F,0,0,1,0,0,0,1 @ F,0,0,1,0,0,0,1 @ F,0,0,1,0,0,0,1 @ F,0,0,1,0,0,0,1 @ F,0,0,1,0,0,0,1 @ F,0,0,1,0,0,0,1 @ F,0,0,1,0,0,0,1 @ F,0,0,1,0,0,0,1 @ F,0,0,1,0,0,0,1 @ F,0,0,1,0,0,0,1 @ F,0,0,1,0,0,0,1 @ F,0,0,1,0,0,0,1 @ F,0,0,1,0,0,0,1 @ F,0,0,1,0,0,0,1 @ F,0,0,1,0,0,0,1 @ F,0,0,1,0,0,0,1 @ F,0,0,1,0,0,0,1 @ F,0,0,1,0,0,0,1 @ F,0,0,1,0,0,0,1 @ F,0,0,1,0,0,0,1 @ F,0,0,1,0,0,0,1"
       radius="0"
       unit="px"
       method="auto"
       mode="F"
       chamfer_steps="1"
       flexible="false"
       use_knot_distance="true"
       apply_no_radius="true"
       apply_with_radius="true"
       only_selected="false"
       hide_knots="false" />
  </defs>
  <sodipodi:namedview
     id="namedview1"
     pagecolor="#ffffff"
     bordercolor="#999999"
     borderopacity="1"
     inkscape:showpageshadow="2"
     inkscape:pageopacity="0"
     inkscape:pagecheckerboard="0"
     inkscape:deskcolor="#d1d1d1"
     showguides="true"
     inkscape:zoom="0.33101436"
     inkscape:cx="-613.26644"
     inkscape:cy="-228.08678"
     inkscape:window-width="1920"
     inkscape:window-height="947"
     inkscape:window-x="1680"
     inkscape:window-y="32"
     inkscape:window-maximized="1"
     inkscape:current-layer="svg1" />
  <rect
     style="opacity:1;fill:#ffffff;fill-opacity:1;stroke:#000000;stroke-width:0.6;stroke-dasharray:none;stroke-opacity:1"
     id="rect42"
     width="23.4"
     height="23.4"
     x="0.30000305"
     y="0.29999971"
     ry="2.3584671"
     inkscape:export-filename="../Documents/paper2.svg"
     inkscape:export-xdpi="96"
     inkscape:export-ydpi="96" />
  <g
     id="g56"
     transform="translate(36.465368,22.220183)">
    <path
       d="m -30.287502,-15.218402 v 6.0893625 h 0.01486 c -0.0062,0.06909 -0.01115,0.1382793 -0.01486,0.2075417 0,0.2767634 0.01981,0.5531753 0.05926,0.8271212 0.03945,0.2739288 0.09845,0.5446973 0.176552,0.810234 0.07812,0.2655465 0.175135,0.525188 0.290316,0.7769336 0.11517,0.2517334 0.248207,0.4949351 0.398092,0.727746 0.149893,0.2328297 0.316258,0.4546767 0.497821,0.6638411 0.181559,0.2091553 0.377857,0.4051006 0.587388,0.5863358 0.20954,0.1812369 0.431786,0.3473032 0.665033,0.4969283 0.233228,0.1496169 0.476868,0.2824147 0.729052,0.3973788 0.252198,0.1149738 0.512305,0.2118193 0.778329,0.2897954 0.266014,0.07797 0.537269,0.1368567 0.811689,0.1762361 0.274437,0.039389 0.551346,0.059157 0.828605,0.059157 0.277259,8e-7 0.554168,-0.019776 0.828605,-0.059157 0.27442,-0.039389 0.545674,-0.098277 0.811689,-0.1762361 0.266024,-0.077978 0.526131,-0.1748216 0.778329,-0.2897954 0.252184,-0.1149641 0.495824,-0.2477619 0.729053,-0.3973788 0.233247,-0.1496251 0.455492,-0.3156914 0.665032,-0.4969283 0.20953,-0.1812352 0.405827,-0.3771805 0.587388,-0.5863358 0.181562,-0.2091644 0.347928,-0.4310114 0.497821,-0.6638411 0.149886,-0.2328109 0.282922,-0.4760126 0.398092,-0.727746 0.115181,-0.2517456 0.2122,-0.5113871 0.290316,-0.7769336 0.0781,-0.2655367 0.137103,-0.5363052 0.176551,-0.810234 0.03945,-0.2739459 0.05926,-0.5503578 0.05926,-0.8271212 -5.23e-4,-0.069205 -0.0024,-0.1383976 -0.0053,-0.2075417 h 0.0053 v -6.0893625 z"
       style="fill:#808080;fill-opacity:1;stroke:#000000;stroke-width:0.599999"
       id="path44" />
    <rect
       style="fill:#808080;fill-opacity:1;stroke:#000000;stroke-width:0.6;stroke-dasharray:none;stroke-opacity:1"
       id="rect45"
       width="2.5432582"
       height="5.590168"
       x="-30.2875"
       y="-16.477978"
       ry="1.2698112" />
    <rect
       style="fill:#808080;fill-opacity:1;stroke:#000000;stroke-width:0.600001;stroke-dasharray:none;stroke-opacity:1"
       id="rect46"
       width="2.5432582"
       height="6.4427652"
       x="-27.25383"
       y="-17.330576"
       ry="1.2698112" />
    <rect
       style="fill:#808080;fill-opacity:1;stroke:#000000;stroke-width:0.600001;stroke-dasharray:none;stroke-opacity:1"
       id="rect47"
       width="2.5432582"
       height="6.4427652"
       x="-24.220158"
       y="-17.330576"
       ry="1.2698112" />
    <rect
       style="fill:#808080;fill-opacity:1;stroke:#000000;stroke-width:0.600001;stroke-dasharray:none;stroke-opacity:1"
       id="rect48"
       width="2.5432582"
       height="6.4427643"
       x="-21.186487"
       y="-17.330576"
       ry="1.2698112" />
    <path
       id="path48"
       style="color:#000000;fill:#808080;fill-opacity:1;stroke-width:1.22433;-inkscape-stroke:none"
       d="m -23.505893,-14.109189 c -0.04403,0 -0.08756,0.0022 -0.13041,0.0065 -0.04285,0.0043 -0.08507,0.01075 -0.126531,0.01918 -0.04146,0.0084 -0.08216,0.01885 -0.122028,0.03118 -0.03986,0.01233 -0.07889,0.02654 -0.116953,0.04256 -0.03806,0.01602 -0.07516,0.03387 -0.111204,0.05337 -0.03604,0.0195 -0.07102,0.04069 -0.104836,0.06346 -0.03381,0.02277 -0.06647,0.04714 -0.09784,0.07298 -0.03138,0.02584 -0.0615,0.05313 -0.09023,0.08183 -0.02873,0.02869 -0.05607,0.05876 -0.08194,0.0901 -0.02587,0.03133 -0.05027,0.06394 -0.07308,0.0977 -0.0228,0.03377 -0.04402,0.0687 -0.06355,0.104686 -0.01954,0.03599 -0.03735,0.07304 -0.0534,0.111045 -0.01604,0.038 -0.03032,0.07698 -0.04267,0.116785 -0.01235,0.03981 -0.02278,0.08045 -0.03122,0.121855 -0.0084,0.04141 -0.01488,0.08356 -0.01921,0.12635 -0.0043,0.04279 -0.0065,0.08621 -0.0065,0.130175 0,0.04397 0.0022,0.08738 0.0065,0.130175 0.0043,0.04279 0.01076,0.08495 0.01921,0.12635 0.0084,0.04141 0.01888,0.08209 0.03122,0.121903 0.01235,0.03981 0.02663,0.07878 0.04267,0.116784 0.01605,0.038 0.03387,0.07506 0.0534,0.111046 0.01953,0.03599 0.04075,0.07092 0.06355,0.104686 0.0228,0.03377 0.04721,0.06637 0.07308,0.0977 0.02588,0.03133 0.05321,0.06136 0.08194,0.09005 0.02873,0.02869 0.05885,0.05604 0.09023,0.08187 0.03138,0.02584 0.06403,0.0502 0.09784,0.07298 0.03381,0.02277 0.0688,0.04396 0.104836,0.06346 0.03605,0.01951 0.07315,0.0373 0.111204,0.05332 0.03806,0.01602 0.07709,0.03023 0.116953,0.04256 0.03987,0.01233 0.08057,0.0228 0.122028,0.03123 0.04147,0.0084 0.08368,0.01485 0.126531,0.01918 0.04285,0.0043 0.08638,0.0065 0.13041,0.0065 h 2.319406 v 1.07158 c -0.06509,0.01615 -0.129321,0.03562 -0.19243,0.0583 -0.119391,0.04939 -0.233638,0.110368 -0.341086,0.182064 -0.107441,0.07169 -0.20757,0.153754 -0.298942,0.244999 -0.09138,0.09124 -0.173555,0.1912271 -0.245349,0.2985149 -0.0718,0.1072952 -0.132869,0.2213778 -0.182326,0.3405982 -0.04945,0.1192238 -0.08705,0.2430141 -0.112258,0.3695802 -0.02522,0.1265687 -0.03793,0.2553083 -0.03793,0.3843573 2e-6,0.022315 0.0025,0.044482 0.0033,0.066764 h 3.94577 c 0.002,-0.029521 0.0045,-0.058937 0.0045,-0.088999 v -4.1976036 c 0,-0.04397 -0.0022,-0.08738 -0.0065,-0.130175 -0.0043,-0.04279 -0.01072,-0.08495 -0.01916,-0.12635 -0.0084,-0.04139 -0.01893,-0.08206 -0.03127,-0.121854 v -4.8e-5 c -0.01235,-0.03981 -0.02658,-0.07873 -0.04263,-0.116737 -0.01604,-0.038 -0.03387,-0.07506 -0.0534,-0.111046 -0.01953,-0.03599 -0.04079,-0.07092 -0.0636,-0.104686 -0.0228,-0.03377 -0.04716,-0.06637 -0.07304,-0.0977 -0.02588,-0.03133 -0.05326,-0.06141 -0.08199,-0.0901 -0.02873,-0.02869 -0.0588,-0.05599 -0.09018,-0.08183 -0.03138,-0.02584 -0.06403,-0.0502 -0.09784,-0.07297 -0.03381,-0.02277 -0.06885,-0.04396 -0.104883,-0.06346 -0.03605,-0.0195 -0.0731,-0.03735 -0.111158,-0.05337 h -4.8e-5 c -0.03805,-0.01601 -0.07705,-0.03024 -0.116904,-0.04256 -0.03986,-0.01233 -0.08061,-0.02275 -0.122076,-0.03118 -0.04147,-0.0084 -0.08368,-0.01485 -0.126531,-0.01918 -0.04285,-0.0043 -0.08633,-0.0065 -0.130362,-0.0065 z" />
    <path
       id="path49"
       style="color:#000000;fill:#000000;stroke-width:1.22433;-inkscape-stroke:none"
       d="m 13.27541,-13.777324 c -0.06389,0 -0.126983,0.0034 -0.189492,0.0098 -0.06238,0.0063 -0.124962,0.01697 -0.185508,0.0293 -0.06049,0.01232 -0.119545,0.02692 -0.177773,0.04494 -0.05812,0.01801 -0.114218,0.03898 -0.169922,0.06246 -0.05573,0.0235 -0.11156,0.04971 -0.164063,0.07816 -0.05267,0.02853 -0.102992,0.05848 -0.152343,0.09176 -0.04941,0.03332 -0.0968,0.06974 -0.142559,0.107461 -0.04569,0.03768 -0.09082,0.0771 -0.132832,0.119121 -0.04199,0.04199 -0.08142,0.0871 -0.119121,0.132832 -0.03772,0.04575 -0.07215,0.09316 -0.105469,0.142559 -0.0333,0.04937 -0.06523,0.09971 -0.09375,0.152343 -0.02858,0.05273 -0.0547,0.106607 -0.07811,0.162129 -0.0234,0.05551 -0.04445,0.11351 -0.06252,0.171856 -0.01807,0.05831 -0.03263,0.117274 -0.04494,0.177715 -0.01233,0.06055 -0.02101,0.121254 -0.02731,0.183632 -0.0063,0.06249 -0.0098,0.127475 -0.0098,0.191368 0,0.06389 0.0034,0.127005 0.0098,0.189492 0.0063,0.06238 0.01497,0.123028 0.02731,0.183574 0.01231,0.06044 0.02689,0.119421 0.04494,0.177715 0.01808,0.05837 0.03913,0.116427 0.06252,0.171914 0.02341,0.05553 0.04955,0.109382 0.07811,0.16207 0.02853,0.05267 0.06047,0.102993 0.09375,0.152344 0.03332,0.04941 0.06774,0.0988 0.105469,0.144551 0.03777,0.0458 0.07722,0.08894 0.119121,0.13084 0.04187,0.04187 0.08696,0.08136 0.132832,0.119179 0.0458,0.03777 0.09319,0.0741 0.142559,0.107403 0.04937,0.0333 0.09971,0.0633 0.152343,0.09182 0.05273,0.02858 0.108544,0.0547 0.164063,0.07811 0.05571,0.02349 0.111791,0.04451 0.169922,0.06252 0.05808,0.01799 0.117101,0.03259 0.177773,0.04494 0.06055,0.01233 0.123127,0.02299 0.185508,0.0293 0.06251,0.0063 0.125598,0.0098 0.189492,0.0098 h 2.53711 v 0.7890816 c -0.01223,0.00421 -0.02497,0.00734 -0.03715,0.011719 l -0.0059,0.00387 -0.0078,0.00199 c -0.164221,0.068029 -0.320951,0.1511981 -0.46875,0.2499609 -0.147785,0.098756 -0.284473,0.2122193 -0.410157,0.3379102 -0.125688,0.1256821 -0.239154,0.2643011 -0.33791,0.4120898 -0.09875,0.1477928 -0.183923,0.3045213 -0.251953,0.46875 -0.06802,0.1642278 -0.119604,0.3354208 -0.154277,0.5097656 -0.03468,0.1743332 -0.05079,0.3515674 -0.0508,0.529336 0.04477,8e-7 0.136923,0.081035 0.303482,0.081035 0.165817,0 0.251361,-0.081151 0.296234,-0.081152 9e-6,-0.1384548 0.014,-0.2762776 0.04102,-0.4120898 0.02701,-0.1357946 0.06614,-0.2705179 0.119121,-0.3984375 0.05299,-0.1279107 0.118367,-0.2501488 0.195293,-0.3652735 0.07692,-0.1151108 0.165773,-0.2223799 0.263672,-0.3202734 0.09789,-0.097899 0.205218,-0.1848144 0.320332,-0.2617383 0.115116,-0.076923 0.237296,-0.1423021 0.365215,-0.195293 0.06332,-0.022314 0.128205,-0.042404 0.193359,-0.058594 a 0.37372627,0.37372627 119.51147 0 0 0.226582,-0.4002954 v -0.9544432 a 0.54766411,0.54766411 45 0 0 -0.547664,-0.547664 H 13.27541 c -0.04385,0 -0.08656,-0.0035 -0.128906,-0.0078 -0.04247,-0.0043 -0.08413,-0.01118 -0.125039,-0.01951 -0.04078,-0.0083 -0.08157,-0.01713 -0.121055,-0.02936 -0.03942,-0.01221 -0.07784,-0.02717 -0.115254,-0.04295 -0.03761,-0.01585 -0.07392,-0.03351 -0.109394,-0.05273 -0.03555,-0.01926 -0.07011,-0.03996 -0.103477,-0.06246 -0.03336,-0.0225 -0.06669,-0.04674 -0.09768,-0.07231 -0.03091,-0.02548 -0.05946,-0.05167 -0.08789,-0.0801 -0.02841,-0.02841 -0.05649,-0.05885 -0.08203,-0.08982 -0.02558,-0.03102 -0.04977,-0.06235 -0.07225,-0.09568 -0.02252,-0.03339 -0.04327,-0.06801 -0.06252,-0.103535 -0.01923,-0.0355 -0.03689,-0.07175 -0.05273,-0.109336 -0.01563,-0.03708 -0.029,-0.07666 -0.04102,-0.115254 v -0.002 c -0.01191,-0.03869 -0.02301,-0.07879 -0.03123,-0.119179 -0.0083,-0.04091 -0.01528,-0.0825 -0.01957,-0.124981 -0.0043,-0.04237 -0.0059,-0.08506 -0.0059,-0.128906 0,-0.04385 0.0016,-0.08847 0.0059,-0.13084 0.0043,-0.04247 0.01124,-0.08413 0.01957,-0.125039 0.0084,-0.04101 0.01908,-0.07989 0.03123,-0.119121 0.01215,-0.03921 0.02516,-0.07764 0.04102,-0.115254 0.01585,-0.03761 0.03351,-0.07585 0.05273,-0.111328 0.01926,-0.03555 0.04002,-0.07011 0.06252,-0.103477 0.02248,-0.03333 0.04667,-0.06471 0.07225,-0.09574 0.0256,-0.03105 0.05372,-0.06151 0.08203,-0.08982 0.02829,-0.02829 0.0568,-0.05439 0.08789,-0.08004 0.03102,-0.02557 0.06435,-0.04983 0.09768,-0.07231 0.03339,-0.02252 0.06794,-0.04327 0.103477,-0.06252 0.03568,-0.01933 0.07201,-0.03692 0.109394,-0.05268 0.03743,-0.01578 0.07583,-0.0308 0.115254,-0.04301 0.03932,-0.01217 0.08008,-0.02095 0.121055,-0.0293 0.04091,-0.0083 0.08256,-0.01522 0.125039,-0.01951 0.04235,-0.0043 0.08506,-0.0059 0.128906,-0.0059 v 5.8e-5 h 4.392539 c 0.04384,0 0.08853,0.0016 0.130899,0.0059 0.04248,0.0043 0.08407,0.01118 0.12498,0.01951 0.04105,0.0084 0.07995,0.01716 0.119121,0.0293 0.03928,0.01216 0.07773,0.02719 0.115254,0.04301 0.03729,0.01572 0.07358,0.03333 0.109395,0.05273 0.03565,0.01932 0.07022,0.04003 0.103476,0.06246 0.03336,0.0225 0.06669,0.04675 0.09768,0.07231 0.03093,0.02551 0.05946,0.05161 0.08789,0.08004 0.02841,0.02841 0.05651,0.05893 0.08203,0.08988 0.02545,0.03085 0.04966,0.06219 0.07225,0.09568 0.02263,0.03356 0.04337,0.06819 0.06252,0.103535 0.01923,0.0355 0.03689,0.07374 0.05273,0.111328 0.01582,0.03753 0.02883,0.07585 0.04102,0.115196 0.01223,0.03949 0.02295,0.07849 0.03123,0.119179 0.0083,0.04069 0.01525,0.08228 0.01957,0.124981 0.0043,0.04237 0.0059,0.08699 0.0059,0.13084 v 5.1425973 c 0,0.036889 -0.002,0.072704 -0.0049,0.108457 h 0.600117 c 0.0016,-0.036068 0.0045,-0.071837 0.0045,-0.1083984 v -5.1425979 c 0,-0.06389 -0.0016,-0.128939 -0.0079,-0.191426 -0.0063,-0.06216 -0.01692,-0.122805 -0.0293,-0.183574 -0.0086,-0.04205 -0.01993,-0.08226 -0.03123,-0.123047 v -0.01172 l -0.01365,-0.04295 c -0.01803,-0.05822 -0.03908,-0.11631 -0.06252,-0.171914 -0.02341,-0.05553 -0.04956,-0.109382 -0.07811,-0.16207 -0.02863,-0.05285 -0.05865,-0.103158 -0.09182,-0.152344 -0.03321,-0.04924 -0.06953,-0.0967 -0.107402,-0.142617 -0.0378,-0.04583 -0.07729,-0.09088 -0.11918,-0.132773 -0.04187,-0.04187 -0.08692,-0.08138 -0.132773,-0.11918 -0.0458,-0.03777 -0.09325,-0.0741 -0.142618,-0.107402 -0.04948,-0.03337 -0.09982,-0.06336 -0.152343,-0.09182 -0.05238,-0.02838 -0.106224,-0.05456 -0.162071,-0.07811 l -0.05666,-0.02344 h -0.0078 c -0.03538,-0.0134 -0.071,-0.02781 -0.107402,-0.03908 -0.05837,-0.01808 -0.117358,-0.03258 -0.177774,-0.04488 -0.06055,-0.01233 -0.123127,-0.02299 -0.185507,-0.0293 -0.06249,-0.0063 -0.1256,-0.0098 -0.189493,-0.0098 z"
       inkscape:path-effect="#path-effect50"
       inkscape:original-d="m 13.27541,-13.777324 c -0.06389,0 -0.126983,0.0034 -0.189492,0.0098 -0.06238,0.0063 -0.124962,0.01697 -0.185508,0.0293 -0.06049,0.01232 -0.119545,0.02692 -0.177773,0.04494 -0.05812,0.01801 -0.114218,0.03898 -0.169922,0.06246 -0.05573,0.0235 -0.11156,0.04971 -0.164063,0.07816 -0.05267,0.02853 -0.102992,0.05848 -0.152343,0.09176 -0.04941,0.03332 -0.0968,0.06974 -0.142559,0.107461 -0.04569,0.03768 -0.09082,0.0771 -0.132832,0.119121 -0.04199,0.04199 -0.08142,0.0871 -0.119121,0.132832 -0.03772,0.04575 -0.07215,0.09316 -0.105469,0.142559 -0.0333,0.04937 -0.06523,0.09971 -0.09375,0.152343 -0.02858,0.05273 -0.0547,0.106607 -0.07811,0.162129 -0.0234,0.05551 -0.04445,0.11351 -0.06252,0.171856 -0.01807,0.05831 -0.03263,0.117274 -0.04494,0.177715 -0.01233,0.06055 -0.02101,0.121254 -0.02731,0.183632 -0.0063,0.06249 -0.0098,0.127475 -0.0098,0.191368 0,0.06389 0.0034,0.127005 0.0098,0.189492 0.0063,0.06238 0.01497,0.123028 0.02731,0.183574 0.01231,0.06044 0.02689,0.119421 0.04494,0.177715 0.01808,0.05837 0.03913,0.116427 0.06252,0.171914 0.02341,0.05553 0.04955,0.109382 0.07811,0.16207 0.02853,0.05267 0.06047,0.102993 0.09375,0.152344 0.03332,0.04941 0.06774,0.0988 0.105469,0.144551 0.03777,0.0458 0.07722,0.08894 0.119121,0.13084 0.04187,0.04187 0.08696,0.08136 0.132832,0.119179 0.0458,0.03777 0.09319,0.0741 0.142559,0.107403 0.04937,0.0333 0.09971,0.0633 0.152343,0.09182 0.05273,0.02858 0.108544,0.0547 0.164063,0.07811 0.05571,0.02349 0.111791,0.04451 0.169922,0.06252 0.05808,0.01799 0.117101,0.03259 0.177773,0.04494 0.06055,0.01233 0.123127,0.02299 0.185508,0.0293 0.06251,0.0063 0.125598,0.0098 0.189492,0.0098 h 2.53711 v 0.7890816 c -0.01223,0.00421 -0.02497,0.00734 -0.03715,0.011719 l -0.0059,0.00387 -0.0078,0.00199 c -0.164221,0.068029 -0.320951,0.1511981 -0.46875,0.2499609 -0.147785,0.098756 -0.284473,0.2122193 -0.410157,0.3379102 -0.125688,0.1256821 -0.239154,0.2643011 -0.33791,0.4120898 -0.09875,0.1477928 -0.183923,0.3045213 -0.251953,0.46875 -0.06802,0.1642278 -0.119604,0.3354208 -0.154277,0.5097656 -0.03468,0.1743332 -0.05079,0.3515674 -0.0508,0.529336 2e-6,0.027048 0.0011,0.054019 0.0019,0.081035 h 0.601816 c -0.0011,-0.027075 -0.004,-0.054023 -0.004,-0.081152 9e-6,-0.1384548 0.014,-0.2762776 0.04102,-0.4120898 0.02701,-0.1357946 0.06614,-0.2705179 0.119121,-0.3984375 0.05299,-0.1279107 0.118367,-0.2501488 0.195293,-0.3652735 0.07692,-0.1151108 0.165773,-0.2223799 0.263672,-0.3202734 0.09789,-0.097899 0.205218,-0.1848144 0.320332,-0.2617383 0.115116,-0.076923 0.237296,-0.1423021 0.365215,-0.195293 0.06332,-0.022314 0.128205,-0.042404 0.193359,-0.058594 l 0.226582,-0.05666 V -10.664062 H 13.27541 c -0.04385,0 -0.08656,-0.0035 -0.128906,-0.0078 -0.04247,-0.0043 -0.08413,-0.01118 -0.125039,-0.01951 -0.04078,-0.0083 -0.08157,-0.01713 -0.121055,-0.02936 -0.03942,-0.01221 -0.07784,-0.02717 -0.115254,-0.04295 -0.03761,-0.01585 -0.07392,-0.03351 -0.109394,-0.05273 -0.03555,-0.01926 -0.07011,-0.03996 -0.103477,-0.06246 -0.03336,-0.0225 -0.06669,-0.04674 -0.09768,-0.07231 -0.03091,-0.02548 -0.05946,-0.05167 -0.08789,-0.0801 -0.02841,-0.02841 -0.05649,-0.05885 -0.08203,-0.08982 -0.02558,-0.03102 -0.04977,-0.06235 -0.07225,-0.09568 -0.02252,-0.03339 -0.04327,-0.06801 -0.06252,-0.103535 -0.01923,-0.0355 -0.03689,-0.07175 -0.05273,-0.109336 -0.01563,-0.03708 -0.029,-0.07666 -0.04102,-0.115254 v -0.002 c -0.01191,-0.03869 -0.02301,-0.07879 -0.03123,-0.119179 -0.0083,-0.04091 -0.01528,-0.0825 -0.01957,-0.124981 -0.0043,-0.04237 -0.0059,-0.08506 -0.0059,-0.128906 0,-0.04385 0.0016,-0.08847 0.0059,-0.13084 0.0043,-0.04247 0.01124,-0.08413 0.01957,-0.125039 0.0084,-0.04101 0.01908,-0.07989 0.03123,-0.119121 0.01215,-0.03921 0.02516,-0.07764 0.04102,-0.115254 0.01585,-0.03761 0.03351,-0.07585 0.05273,-0.111328 0.01926,-0.03555 0.04002,-0.07011 0.06252,-0.103477 0.02248,-0.03333 0.04667,-0.06471 0.07225,-0.09574 0.0256,-0.03105 0.05372,-0.06151 0.08203,-0.08982 0.02829,-0.02829 0.0568,-0.05439 0.08789,-0.08004 0.03102,-0.02557 0.06435,-0.04983 0.09768,-0.07231 0.03339,-0.02252 0.06794,-0.04327 0.103477,-0.06252 0.03568,-0.01933 0.07201,-0.03692 0.109394,-0.05268 0.03743,-0.01578 0.07583,-0.0308 0.115254,-0.04301 0.03932,-0.01217 0.08008,-0.02095 0.121055,-0.0293 0.04091,-0.0083 0.08256,-0.01522 0.125039,-0.01951 0.04235,-0.0043 0.08506,-0.0059 0.128906,-0.0059 v 5.8e-5 h 4.392539 c 0.04384,0 0.08853,0.0016 0.130899,0.0059 0.04248,0.0043 0.08407,0.01118 0.12498,0.01951 0.04105,0.0084 0.07995,0.01716 0.119121,0.0293 0.03928,0.01216 0.07773,0.02719 0.115254,0.04301 0.03729,0.01572 0.07358,0.03333 0.109395,0.05273 0.03565,0.01932 0.07022,0.04003 0.103476,0.06246 0.03336,0.0225 0.06669,0.04675 0.09768,0.07231 0.03093,0.02551 0.05946,0.05161 0.08789,0.08004 0.02841,0.02841 0.05651,0.05893 0.08203,0.08988 0.02545,0.03085 0.04966,0.06219 0.07225,0.09568 0.02263,0.03356 0.04337,0.06819 0.06252,0.103535 0.01923,0.0355 0.03689,0.07374 0.05273,0.111328 0.01582,0.03753 0.02883,0.07585 0.04102,0.115196 0.01223,0.03949 0.02295,0.07849 0.03123,0.119179 0.0083,0.04069 0.01525,0.08228 0.01957,0.124981 0.0043,0.04237 0.0059,0.08699 0.0059,0.13084 v 5.1425973 c 0,0.036889 -0.002,0.072704 -0.0049,0.108457 h 0.600117 c 0.0016,-0.036068 0.0045,-0.071837 0.0045,-0.1083984 v -5.1425979 c 0,-0.06389 -0.0016,-0.128939 -0.0079,-0.191426 -0.0063,-0.06216 -0.01692,-0.122805 -0.0293,-0.183574 -0.0086,-0.04205 -0.01993,-0.08226 -0.03123,-0.123047 v -0.01172 l -0.01365,-0.04295 c -0.01803,-0.05822 -0.03908,-0.11631 -0.06252,-0.171914 -0.02341,-0.05553 -0.04956,-0.109382 -0.07811,-0.16207 -0.02863,-0.05285 -0.05865,-0.103158 -0.09182,-0.152344 -0.03321,-0.04924 -0.06953,-0.0967 -0.107402,-0.142617 -0.0378,-0.04583 -0.07729,-0.09088 -0.11918,-0.132773 -0.04187,-0.04187 -0.08692,-0.08138 -0.132773,-0.11918 -0.0458,-0.03777 -0.09325,-0.0741 -0.142618,-0.107402 -0.04948,-0.03337 -0.09982,-0.06336 -0.152343,-0.09182 -0.05238,-0.02838 -0.106224,-0.05456 -0.162071,-0.07811 l -0.05666,-0.02344 h -0.0078 c -0.03538,-0.0134 -0.071,-0.02781 -0.107402,-0.03908 -0.05837,-0.01808 -0.117358,-0.03258 -0.177774,-0.04488 -0.06055,-0.01233 -0.123127,-0.02299 -0.185507,-0.0293 -0.06249,-0.0063 -0.1256,-0.0098 -0.189493,-0.0098 z"
       transform="matrix(0.81735572,0,0,0.81618728,-34.356338,-3.1097903)" />
  </g>
</svg>
