<?xml version="1.0" encoding="UTF-8" standalone="no"?>
<!-- Uploaded to: SVG Repo, www.svgrepo.com, Generator: SVG Repo Mixer Tools -->

<svg
   width="800"
   height="800"
   viewBox="0 0 24 24"
   fill="none"
   version="1.1"
   id="svg1"
   sodipodi:docname="rock-paper-scissors.svg"
   inkscape:version="1.3 (0e150ed6c4, 2023-07-21)"
   xmlns:inkscape="http://www.inkscape.org/namespaces/inkscape"
   xmlns:sodipodi="http://sodipodi.sourceforge.net/DTD/sodipodi-0.dtd"
   xmlns="http://www.w3.org/2000/svg"
   xmlns:svg="http://www.w3.org/2000/svg">
  <defs
     id="defs1">
    <inkscape:path-effect
       effect="fillet_chamfer"
       id="path-effect31"
       is_visible="true"
       lpeversion="1"
       nodesatellites_param="F,0,0,1,0,0,0,1 @ F,0,0,1,0,0,0,1 @ F,0,0,1,0,0,0,1 @ F,0,0,1,0,0,0,1 @ F,0,0,1,0,0,0,1 @ F,0,0,1,0,0,0,1 @ F,0,0,1,0,0,0,1 @ F,0,0,1,0,0,0,1 @ F,0,0,1,0,0,0,1 @ F,0,0,1,0,0,0,1 @ F,0,0,1,0,0,0,1 @ F,0,0,1,0,0,0,1 @ F,0,0,1,0,0,0,1 @ F,0,0,1,0,0,0,1 @ F,0,0,1,0,0,0,1 @ F,0,0,1,0,0,0,1 @ F,0,0,1,0,0,0,1 @ F,0,0,1,0,0,0,1 @ F,0,0,1,0,1.1313603,0,1 @ F,0,0,1,0,0,0,1 @ F,0,0,1,0,0,0,1 @ F,0,0,1,0,0,0,1 @ F,0,0,1,0,0,0,1 @ F,0,0,1,0,0,0,1 @ F,0,0,1,0,0,0,1 @ F,0,0,1,0,0,0,1 @ F,0,0,1,0,0,0,1 @ F,0,0,1,0,0,0,1 @ F,0,0,1,0,0,0,1 @ F,0,0,1,0,0,0,1 @ F,0,0,1,0,0,0,1 @ F,0,0,1,0,0,0,1 @ F,0,0,1,0,0,0,1 @ F,0,0,1,0,0,0,1 @ F,0,0,1,0,0,0,1 @ F,0,0,1,0,0,0,1 @ F,0,0,1,0,0,0,1 @ F,0,0,1,0,0,0,1 @ F,0,0,1,0,0,0,1 @ F,0,0,1,0,0,0,1 @ F,0,0,1,0,0,0,1 @ F,0,0,1,0,0,0,1 @ F,0,0,1,0,0,0,1 @ F,0,0,1,0,0,0,1 @ F,0,0,1,0,0,0,1 @ F,0,0,1,0,0,0,1 @ F,0,0,1,0,0,0,1 @ F,0,0,1,0,0,0,1 @ F,0,0,1,0,0,0,1 @ F,0,0,1,0,0,0,1 @ F,0,0,1,0,0,0,1 @ F,0,0,1,0,0,0,1 @ F,0,0,1,0,0,0,1 @ F,0,0,1,0,0,0,1 @ F,0,0,1,0,0,0,1 @ F,0,0,1,0,0,0,1 @ F,0,0,1,0,0,0,1 @ F,0,0,1,0,0,0,1 @ F,0,0,1,0,0,0,1 @ F,0,0,1,0,0,0,1 @ F,0,0,1,0,0,0,1 @ F,0,0,1,0,0,0,1 @ F,0,0,1,0,0,0,1 @ F,0,0,1,0,0,0,1 @ F,0,0,1,0,0,0,1 @ F,0,0,1,0,0,0,1 @ F,0,0,1,0,0,0,1 @ F,0,0,1,0,0,0,1 @ F,0,0,1,0,0,0,1 @ F,0,0,1,0,1.4729255,0,1 @ F,0,0,1,0,0,0,1 @ F,0,0,1,0,0,0,1 @ F,0,0,1,0,0,0,1 @ F,0,0,1,0,0,0,1 @ F,0,0,1,0,0,0,1 @ F,0,0,1,0,0,0,1 @ F,0,0,1,0,0,0,1 @ F,0,0,1,0,0,0,1 @ F,0,0,1,0,0,0,1 @ F,0,0,1,0,0,0,1 @ F,0,0,1,0,0,0,1 @ F,0,0,1,0,0,0,1 @ F,0,0,1,0,0,0,1 @ F,0,0,1,0,0,0,1 @ F,0,0,1,0,0,0,1 @ F,0,0,1,0,0,0,1 @ F,0,0,1,0,0,0,1 @ F,0,0,1,0,0,0,1 @ F,0,0,1,0,0,0,1 @ F,0,0,1,0,0,0,1 @ F,0,0,1,0,0,0,1 @ F,0,0,1,0,0,0,1 @ F,0,0,1,0,0,0,1 @ F,0,0,1,0,0,0,1 @ F,0,0,1,0,0,0,1 @ F,0,0,1,0,0,0,1 @ F,0,0,1,0,0,0,1 @ F,0,0,1,0,0,0,1 @ F,0,0,1,0,0,0,1 @ F,0,0,1,0,0.29403987,0,1 @ F,0,0,1,0,0.29403987,0,1 @ F,0,0,1,0,0,0,1 @ F,0,0,1,0,0,0,1 @ F,0,0,1,0,0,0,1 @ F,0,0,1,0,0,0,1 @ F,0,0,1,0,0,0,1 @ F,0,0,1,0,0,0,1 @ F,0,0,1,0,0,0,1 @ F,0,0,1,0,0,0,1 @ F,0,0,1,0,0,0,1 @ F,0,0,1,0,0,0,1 @ F,0,0,1,0,0,0,1 @ F,0,0,1,0,0,0,1"
       radius="0"
       unit="px"
       method="auto"
       mode="F"
       chamfer_steps="1"
       flexible="false"
       use_knot_distance="true"
       apply_no_radius="true"
       apply_with_radius="true"
       only_selected="false"
       hide_knots="false" />
    <inkscape:path-effect
       effect="fillet_chamfer"
       id="path-effect30"
       is_visible="true"
       lpeversion="1"
       nodesatellites_param="F,0,0,1,0,0,0,1 @ F,0,0,1,0,0,0,1 @ F,0,0,1,0,0,0,1 @ F,0,0,1,0,0,0,1 @ F,0,0,1,0,0,0,1 @ F,0,0,1,0,0,0,1 @ F,0,0,1,0,0,0,1 @ F,0,0,1,0,0,0,1 @ F,0,0,1,0,0,0,1 @ F,0,0,1,0,0,0,1 @ F,0,0,1,0,0,0,1 @ F,0,0,1,0,0,0,1 @ F,0,0,1,0,0,0,1 @ F,0,0,1,0,0,0,1 @ F,0,0,1,0,0,0,1 @ F,0,0,1,0,0,0,1 @ F,0,0,1,0,0,0,1 @ F,0,0,1,0,0,0,1 @ F,0,0,1,0,0,0,1 @ F,0,0,1,0,0,0,1 @ F,0,0,1,0,0,0,1 @ F,0,0,1,0,0,0,1 @ F,0,0,1,0,0,0,1 @ F,0,0,1,0,0,0,1 @ F,0,0,1,0,0,0,1 @ F,0,0,1,0,0,0,1 @ F,0,0,1,0,0,0,1 @ F,0,0,1,0,0,0,1 @ F,0,0,1,0,0,0,1 @ F,0,0,1,0,0,0,1 @ F,0,0,1,0,0,0,1 @ F,0,0,1,0,0,0,1 @ F,0,0,1,0,0,0,1 @ F,0,0,1,0,0,0,1 @ F,0,0,1,0,0,0,1 @ F,0,0,1,0,0,0,1 @ F,0,0,1,0,0,0,1 @ F,0,0,1,0,0,0,1 @ F,0,0,1,0,0,0,1 @ F,0,0,1,0,0,0,1 @ F,0,0,1,0,0,0,1 @ F,0,0,1,0,0,0,1 @ F,0,0,1,0,0,0,1 @ F,0,0,1,0,0,0,1 @ F,0,0,1,0,0.301582,0,1 @ F,0,0,1,0,0.301582,0,1 @ F,0,0,1,0,0,0,1 @ F,0,0,1,0,0,0,1 @ F,0,0,1,0,0,0,1 @ F,0,0,1,0,0,0,1 @ F,0,0,1,0,0,0,1 @ F,0,0,1,0,0,0,1 @ F,0,0,1,0,0,0,1 @ F,0,0,1,0,0,0,1 @ F,0,0,1,0,0.34363537,0,1 @ F,0,0,1,0,0.54766411,0,1 @ F,0,0,1,0,0,0,1 @ F,0,0,1,0,0,0,1 @ F,0,0,1,0,0,0,1 @ F,0,0,1,0,0,0,1 @ F,0,0,1,0,0,0,1 @ F,0,0,1,0,0,0,1 @ F,0,0,1,0,0,0,1 @ F,0,0,1,0,0,0,1 @ F,0,0,1,0,0,0,1 @ F,0,0,1,0,0,0,1 @ F,0,0,1,0,0,0,1 @ F,0,0,1,0,0,0,1 @ F,0,0,1,0,0,0,1 @ F,0,0,1,0,0,0,1 @ F,0,0,1,0,0,0,1 @ F,0,0,1,0,0,0,1 @ F,0,0,1,0,0,0,1 @ F,0,0,1,0,0,0,1 @ F,0,0,1,0,0,0,1 @ F,0,0,1,0,0,0,1 @ F,0,0,1,0,0,0,1 @ F,0,0,1,0,0,0,1 @ F,0,0,1,0,0,0,1 @ F,0,0,1,0,0,0,1 @ F,0,0,1,0,0,0,1 @ F,0,0,1,0,0,0,1 @ F,0,0,1,0,0,0,1 @ F,0,0,1,0,0,0,1 @ F,0,0,1,0,0,0,1 @ F,0,0,1,0,0,0,1 @ F,0,0,1,0,0,0,1 @ F,0,0,1,0,0,0,1 @ F,0,0,1,0,0,0,1 @ F,0,0,1,0,0,0,1 @ F,0,0,1,0,0,0,1 @ F,0,0,1,0,0,0,1 @ F,0,0,1,0,0,0,1 @ F,0,0,1,0,0,0,1 @ F,0,0,1,0,0,0,1 @ F,0,0,1,0,0,0,1 @ F,0,0,1,0,0,0,1 @ F,0,0,1,0,0,0,1 @ F,0,0,1,0,0,0,1 @ F,0,0,1,0,0,0,1 @ F,0,0,1,0,0,0,1 @ F,0,0,1,0,0,0,1 @ F,0,0,1,0,0,0,1 @ F,0,0,1,0,0,0,1 @ F,0,0,1,0,0,0,1 @ F,0,0,1,0,0,0,1 @ F,0,0,1,0,0,0,1 @ F,0,0,1,0,0,0,1 @ F,0,0,1,0,0,0,1 @ F,0,0,1,0,0,0,1 @ F,0,0,1,0,0,0,1 @ F,0,0,1,0,0,0,1 @ F,0,0,1,0,0,0,1 @ F,0,0,1,0,0,0,1 @ F,0,0,1,0,0,0,1 @ F,0,0,1,0,0,0,1 @ F,0,0,1,0,0,0,1 @ F,0,0,1,0,0,0,1 @ F,0,0,1,0,0,0,1 @ F,0,0,1,0,0,0,1 @ F,0,0,1,0,0,0,1 @ F,0,0,1,0,0,0,1 @ F,0,0,1,0,0,0,1 @ F,0,0,1,0,0,0,1 @ F,0,0,1,0,0,0,1 @ F,0,0,1,0,0,0,1 @ F,0,0,1,0,0,0,1 @ F,0,0,1,0,0,0,1 @ F,0,0,1,0,0,0,1 @ F,0,0,1,0,0,0,1 @ F,0,0,1,0,0,0,1 @ F,0,0,1,0,0,0,1 @ F,0,0,1,0,0,0,1"
       radius="0"
       unit="px"
       method="auto"
       mode="F"
       chamfer_steps="1"
       flexible="false"
       use_knot_distance="true"
       apply_no_radius="true"
       apply_with_radius="true"
       only_selected="false"
       hide_knots="false" />
  </defs>
  <sodipodi:namedview
     id="namedview1"
     pagecolor="#ffffff"
     bordercolor="#999999"
     borderopacity="1"
     inkscape:showpageshadow="2"
     inkscape:pageopacity="0"
     inkscape:pagecheckerboard="0"
     inkscape:deskcolor="#d1d1d1"
     showguides="true"
     inkscape:zoom="0.33101436"
     inkscape:cx="-613.26644"
     inkscape:cy="-228.08678"
     inkscape:window-width="1920"
     inkscape:window-height="947"
     inkscape:window-x="1680"
     inkscape:window-y="32"
     inkscape:window-maximized="1"
     inkscape:current-layer="svg1" />
  <rect
     style="opacity:1;fill:#808080;fill-opacity:1;stroke:#000000;stroke-width:0.6;stroke-dasharray:none;stroke-opacity:1"
     id="rect43"
     width="23.4"
     height="23.4"
     x="0.29999924"
     y="0.30000114"
     ry="2.3584671"
     inkscape:export-filename="../Documents/paper.svg"
     inkscape:export-xdpi="96"
     inkscape:export-ydpi="96" />
  <g
     id="g39"
     transform="matrix(0.81735572,0,0,0.81618728,73.847464,23.941157)"
     style="stroke-width:1.22433">
    <path
       d="m 4.9058789,-27.946699 c -0.051023,-0.002 -0.102427,-0.0015 -0.1541016,0.0017 -0.051674,0.0032 -0.1036138,0.0089 -0.155625,0.0174 -0.052011,0.0085 -0.104119,0.01957 -0.1561523,0.03352 -0.052033,0.01394 -0.1027206,0.03036 -0.1519922,0.04904 -0.049271,0.01868 -0.097109,0.03965 -0.1434375,0.06275 -0.046328,0.02311 -0.091152,0.04837 -0.1343555,0.07559 -0.043203,0.02722 -0.084791,0.05641 -0.1246875,0.08742 -0.039897,0.03101 -0.078083,0.06383 -0.1144921,0.09832 -0.036409,0.03449 -0.07103,0.07062 -0.1037696,0.108281 -0.065478,0.07532 -0.1234336,0.156711 -0.1731445,0.242813 -0.049711,0.0861 -0.091201,0.176922 -0.1236914,0.271289 -0.016245,0.04718 -0.030227,0.09524 -0.041894,0.144023 -0.011668,0.04878 -0.02104,0.0983 -0.027949,0.14836 -0.00691,0.05006 -0.011391,0.100675 -0.013359,0.151699 -0.00197,0.05102 -0.0014,0.102427 0.00176,0.154101 0.00315,0.05167 0.00889,0.103614 0.017344,0.155625 0.00846,0.05201 0.019632,0.104119 0.033574,0.156153 l 1.6942679,6.322992 a 0.86811967,0.86811967 127.49988 0 1 -0.8385383,1.092809 H -2.246188 v 7.460742 h 0.018164 c -0.0076,0.08465 -0.013624,0.169436 -0.018164,0.254297 -5e-7,0.169544 0.00601,0.339002 0.018105,0.508007 0.012091,0.169006 0.03024,0.337553 0.054375,0.5053715 0.02413,0.1678081 0.054269,0.3346599 0.090293,0.5002148 0.036024,0.1655549 0.077907,0.3298719 0.1256836,0.4925391 0.047785,0.1626732 0.1013698,0.3235343 0.1606055,0.4822851 0.059236,0.1587509 0.1241311,0.3153515 0.1945898,0.4695703 0.070452,0.1542113 0.146411,0.3058116 0.2276368,0.4545118 0.081226,0.1487001 0.1677651,0.2945485 0.2594531,0.4371679 0.091693,0.142631 0.18840619,0.2818965 0.28998045,0.4175391 0.10157426,0.1356426 0.20797669,0.2676672 0.31904297,0.3958008 0.11106378,0.1281281 0.22667404,0.2522058 0.34652344,0.3720117 0.11984939,0.1198059 0.24395446,0.2353234 0.3721289,0.3463477 0.12818059,0.1110252 0.26028456,0.2174471 0.39597656,0.3189843 0.13569201,0.1015373 0.27497382,0.1982033 0.41765628,0.2898633 0.1426709,0.091655 0.288531,0.1781397 0.4372851,0.2593359 0.1487541,0.081196 0.3004207,0.1570929 0.4546875,0.2275196 0.1542753,0.070433 0.3109961,0.1353174 0.4698047,0.1945312 0.1588086,0.059214 0.3197282,0.1127789 0.482461,0.1605469 0.1627262,0.047764 0.327041,0.089675 0.4926562,0.1256836 0.1656152,0.036009 0.3325215,0.066111 0.5003906,0.090234 0.1678792,0.02413 0.3365387,0.042288 0.5056055,0.054375 0.1690668,0.012087 0.338578,0.018105 0.5081836,0.018105 0.1696051,5e-7 0.3391169,-0.00602 0.5081836,-0.018105 0.1690666,-0.012089 0.3376677,-0.03025 0.5055469,-0.054375 0.1678691,-0.02413 0.3347755,-0.054225 0.5003906,-0.090234 0.165615,-0.036009 0.3299881,-0.077926 0.4927148,-0.1256836 0.1627327,-0.04777 0.3236523,-0.1013334 0.482461,-0.1605469 0.1588086,-0.059213 0.3154708,-0.1240985 0.4697461,-0.1945312 0.1542668,-0.070427 0.3059331,-0.1463233 0.4546875,-0.2275196 0.1487543,-0.081196 0.2946132,-0.1676809 0.4372851,-0.2593359 0.1426824,-0.09166 0.2820231,-0.188326 0.4177149,-0.2898633 0.1356917,-0.1015372 0.2677373,-0.2079591 0.3959179,-0.3189843 0.1281741,-0.1110243 0.2523382,-0.2265418 0.3721875,-0.3463477 0.1198495,-0.1198059 0.2354005,-0.2438836 0.3464645,-0.3720117 0.111066,-0.1281336 0.217528,-0.2601582 0.319102,-0.3958008 0.101574,-0.1356426 0.198287,-0.2749081 0.28998,-0.4175391 0.09169,-0.1426194 0.178228,-0.2884678 0.259454,-0.4371679 0.08122,-0.1487002 0.157126,-0.3003005 0.227578,-0.4545118 0.07046,-0.1542188 0.135354,-0.3108194 0.19459,-0.4695703 0.05923,-0.1587508 0.112819,-0.3196119 0.160605,-0.4822851 0.04777,-0.1626672 0.08972,-0.3269842 0.125742,-0.4925391 0.03602,-0.1655549 0.06616,-0.3324067 0.09029,-0.5002148 0.02413,-0.1678185 0.04223,-0.3363655 0.05432,-0.5053715 0.01209,-0.169005 0.01816,-0.338463 0.01816,-0.508007 -6.4e-4,-0.08479 -0.0029,-0.169582 -0.0065,-0.254297 h 0.0065 v -5.117231 a 11.187901,11.187901 97.500053 0 1 0.381224,-2.895662 l 1.557994,-5.814471 c 0.01394,-0.05203 0.02512,-0.104141 0.03357,-0.156152 0.0085,-0.05201 0.01419,-0.103951 0.01734,-0.155625 0.0032,-0.05167 0.0037,-0.103079 0.0018,-0.154101 -0.002,-0.05102 -0.0065,-0.101642 -0.01336,-0.1517 -0.0069,-0.05006 -0.01628,-0.09958 -0.02795,-0.148359 -0.01167,-0.04878 -0.02565,-0.09684 -0.0419,-0.144024 -0.03249,-0.09436 -0.07398,-0.185188 -0.123691,-0.271289 -0.04971,-0.0861 -0.107667,-0.167492 -0.173145,-0.242812 -0.03274,-0.03766 -0.06736,-0.07379 -0.103769,-0.108281 -0.03641,-0.03449 -0.0746,-0.06731 -0.114493,-0.09832 -0.0399,-0.03101 -0.08148,-0.0602 -0.124687,-0.08742 -0.0432,-0.02722 -0.08803,-0.05248 -0.134356,-0.07558 -0.04633,-0.02311 -0.09417,-0.04407 -0.143437,-0.06275 -0.04927,-0.01868 -0.09996,-0.0351 -0.151992,-0.04904 -0.05203,-0.01394 -0.104142,-0.02506 -0.156153,-0.03352 -0.05201,-0.0085 -0.103951,-0.01425 -0.155625,-0.0174 -0.05167,-0.0032 -0.103078,-0.0037 -0.154101,-0.0017 -0.05102,0.002 -0.101642,0.0065 -0.151699,0.01336 -0.05006,0.0069 -0.09958,0.01622 -0.14836,0.02789 -0.04878,0.01167 -0.09684,0.02565 -0.144023,0.0419 -0.09437,0.03249 -0.185188,0.07398 -0.271289,0.123691 -0.0861,0.04971 -0.167492,0.107667 -0.242813,0.173145 -0.03766,0.03274 -0.07379,0.06736 -0.108281,0.103769 -0.03449,0.03641 -0.06731,0.0746 -0.09832,0.114493 -0.03101,0.0399 -0.06021,0.08148 -0.08742,0.124687 -0.02722,0.0432 -0.05248,0.08803 -0.07559,0.134356 -0.02311,0.04633 -0.04407,0.09417 -0.06275,0.143437 -0.01868,0.04927 -0.0351,0.09996 -0.04904,0.151992 l -1.8455973,6.887972 A 0.38319865,0.38319865 142.49989 0 1 8.7180028,-18.572796 0.30850868,0.30850868 49.125556 0 1 8.472198,-18.856817 L 6.3454687,-26.79391 c -0.013942,-0.05203 -0.030361,-0.102779 -0.049043,-0.152051 -0.018681,-0.04927 -0.039648,-0.09711 -0.062754,-0.143437 -0.023106,-0.04633 -0.048369,-0.09115 -0.075586,-0.134356 -0.027216,-0.0432 -0.05641,-0.08479 -0.087422,-0.124687 -0.031012,-0.0399 -0.063827,-0.07808 -0.09832,-0.114492 -0.034494,-0.03641 -0.070621,-0.07103 -0.1082812,-0.10377 -0.075321,-0.06548 -0.1567108,-0.123433 -0.2428125,-0.173144 -0.086102,-0.04971 -0.1769224,-0.0912 -0.2712891,-0.123692 -0.047183,-0.01624 -0.095246,-0.03023 -0.1440234,-0.04189 -0.048778,-0.01167 -0.098301,-0.02098 -0.1483594,-0.02789 -0.050058,-0.0069 -0.1006758,-0.01139 -0.1516992,-0.01336 z"
       style="fill:#ffffff;fill-opacity:1;stroke:#000000;stroke-width:0.734602"
       id="path31"
       inkscape:path-effect="#path-effect31"
       inkscape:original-d="m 4.9058789,-27.946699 c -0.051023,-0.002 -0.102427,-0.0015 -0.1541016,0.0017 -0.051674,0.0032 -0.1036138,0.0089 -0.155625,0.0174 -0.052011,0.0085 -0.104119,0.01957 -0.1561523,0.03352 -0.052033,0.01394 -0.1027206,0.03036 -0.1519922,0.04904 -0.049271,0.01868 -0.097109,0.03965 -0.1434375,0.06275 -0.046328,0.02311 -0.091152,0.04837 -0.1343555,0.07559 -0.043203,0.02722 -0.084791,0.05641 -0.1246875,0.08742 -0.039897,0.03101 -0.078083,0.06383 -0.1144921,0.09832 -0.036409,0.03449 -0.07103,0.07062 -0.1037696,0.108281 -0.065478,0.07532 -0.1234336,0.156711 -0.1731445,0.242813 -0.049711,0.0861 -0.091201,0.176922 -0.1236914,0.271289 -0.016245,0.04718 -0.030227,0.09524 -0.041894,0.144023 -0.011668,0.04878 -0.02104,0.0983 -0.027949,0.14836 -0.00691,0.05006 -0.011391,0.100675 -0.013359,0.151699 -0.00197,0.05102 -0.0014,0.102427 0.00176,0.154101 0.00315,0.05167 0.00889,0.103614 0.017344,0.155625 0.00846,0.05201 0.019632,0.104119 0.033574,0.156153 l 1.9870899,7.415801 H -2.246188 v 7.460742 h 0.018164 c -0.0076,0.08465 -0.013624,0.169436 -0.018164,0.254297 -5e-7,0.169544 0.00601,0.339002 0.018105,0.508007 0.012091,0.169006 0.03024,0.337553 0.054375,0.5053715 0.02413,0.1678081 0.054269,0.3346599 0.090293,0.5002148 0.036024,0.1655549 0.077907,0.3298719 0.1256836,0.4925391 0.047785,0.1626732 0.1013698,0.3235343 0.1606055,0.4822851 0.059236,0.1587509 0.1241311,0.3153515 0.1945898,0.4695703 0.070452,0.1542113 0.146411,0.3058116 0.2276368,0.4545118 0.081226,0.1487001 0.1677651,0.2945485 0.2594531,0.4371679 0.091693,0.142631 0.18840619,0.2818965 0.28998045,0.4175391 0.10157426,0.1356426 0.20797669,0.2676672 0.31904297,0.3958008 0.11106378,0.1281281 0.22667404,0.2522058 0.34652344,0.3720117 0.11984939,0.1198059 0.24395446,0.2353234 0.3721289,0.3463477 0.12818059,0.1110252 0.26028456,0.2174471 0.39597656,0.3189843 0.13569201,0.1015373 0.27497382,0.1982033 0.41765628,0.2898633 0.1426709,0.091655 0.288531,0.1781397 0.4372851,0.2593359 0.1487541,0.081196 0.3004207,0.1570929 0.4546875,0.2275196 0.1542753,0.070433 0.3109961,0.1353174 0.4698047,0.1945312 0.1588086,0.059214 0.3197282,0.1127789 0.482461,0.1605469 0.1627262,0.047764 0.327041,0.089675 0.4926562,0.1256836 0.1656152,0.036009 0.3325215,0.066111 0.5003906,0.090234 0.1678792,0.02413 0.3365387,0.042288 0.5056055,0.054375 0.1690668,0.012087 0.338578,0.018105 0.5081836,0.018105 0.1696051,5e-7 0.3391169,-0.00602 0.5081836,-0.018105 0.1690666,-0.012089 0.3376677,-0.03025 0.5055469,-0.054375 0.1678691,-0.02413 0.3347755,-0.054225 0.5003906,-0.090234 0.165615,-0.036009 0.3299881,-0.077926 0.4927148,-0.1256836 0.1627327,-0.04777 0.3236523,-0.1013334 0.482461,-0.1605469 0.1588086,-0.059213 0.3154708,-0.1240985 0.4697461,-0.1945312 0.1542668,-0.070427 0.3059331,-0.1463233 0.4546875,-0.2275196 0.1487543,-0.081196 0.2946132,-0.1676809 0.4372851,-0.2593359 0.1426824,-0.09166 0.2820231,-0.188326 0.4177149,-0.2898633 0.1356917,-0.1015372 0.2677373,-0.2079591 0.3959179,-0.3189843 0.1281741,-0.1110243 0.2523382,-0.2265418 0.3721875,-0.3463477 0.1198495,-0.1198059 0.2354005,-0.2438836 0.3464645,-0.3720117 0.111066,-0.1281336 0.217528,-0.2601582 0.319102,-0.3958008 0.101574,-0.1356426 0.198287,-0.2749081 0.28998,-0.4175391 0.09169,-0.1426194 0.178228,-0.2884678 0.259454,-0.4371679 0.08122,-0.1487002 0.157126,-0.3003005 0.227578,-0.4545118 0.07046,-0.1542188 0.135354,-0.3108194 0.19459,-0.4695703 0.05923,-0.1587508 0.112819,-0.3196119 0.160605,-0.4822851 0.04777,-0.1626672 0.08972,-0.3269842 0.125742,-0.4925391 0.03602,-0.1655549 0.06616,-0.3324067 0.09029,-0.5002148 0.02413,-0.1678185 0.04223,-0.3363655 0.05432,-0.5053715 0.01209,-0.169005 0.01816,-0.338463 0.01816,-0.508007 -6.4e-4,-0.08479 -0.0029,-0.169582 -0.0065,-0.254297 h 0.0065 v -6.590157 l 1.939218,-7.237207 c 0.01394,-0.05203 0.02512,-0.104141 0.03357,-0.156152 0.0085,-0.05201 0.01419,-0.103951 0.01734,-0.155625 0.0032,-0.05167 0.0037,-0.103079 0.0018,-0.154101 -0.002,-0.05102 -0.0065,-0.101642 -0.01336,-0.1517 -0.0069,-0.05006 -0.01628,-0.09958 -0.02795,-0.148359 -0.01167,-0.04878 -0.02565,-0.09684 -0.0419,-0.144024 -0.03249,-0.09436 -0.07398,-0.185188 -0.123691,-0.271289 -0.04971,-0.0861 -0.107667,-0.167492 -0.173145,-0.242812 -0.03274,-0.03766 -0.06736,-0.07379 -0.103769,-0.108281 -0.03641,-0.03449 -0.0746,-0.06731 -0.114493,-0.09832 -0.0399,-0.03101 -0.08148,-0.0602 -0.124687,-0.08742 -0.0432,-0.02722 -0.08803,-0.05248 -0.134356,-0.07558 -0.04633,-0.02311 -0.09417,-0.04407 -0.143437,-0.06275 -0.04927,-0.01868 -0.09996,-0.0351 -0.151992,-0.04904 -0.05203,-0.01394 -0.104142,-0.02506 -0.156153,-0.03352 -0.05201,-0.0085 -0.103951,-0.01425 -0.155625,-0.0174 -0.05167,-0.0032 -0.103078,-0.0037 -0.154101,-0.0017 -0.05102,0.002 -0.101642,0.0065 -0.151699,0.01336 -0.05006,0.0069 -0.09958,0.01622 -0.14836,0.02789 -0.04878,0.01167 -0.09684,0.02565 -0.144023,0.0419 -0.09437,0.03249 -0.185188,0.07398 -0.271289,0.123691 -0.0861,0.04971 -0.167492,0.107667 -0.242813,0.173145 -0.03766,0.03274 -0.07379,0.06736 -0.108281,0.103769 -0.03449,0.03641 -0.06731,0.0746 -0.09832,0.114493 -0.03101,0.0399 -0.06021,0.08148 -0.08742,0.124687 -0.02722,0.0432 -0.05248,0.08803 -0.07559,0.134356 -0.02311,0.04633 -0.04407,0.09417 -0.06275,0.143437 -0.01868,0.04927 -0.0351,0.09996 -0.04904,0.151992 l -1.9216993,7.171993 H 8.5483008 L 6.3454687,-26.79391 c -0.013942,-0.05203 -0.030361,-0.102779 -0.049043,-0.152051 -0.018681,-0.04927 -0.039648,-0.09711 -0.062754,-0.143437 -0.023106,-0.04633 -0.048369,-0.09115 -0.075586,-0.134356 -0.027216,-0.0432 -0.05641,-0.08479 -0.087422,-0.124687 -0.031012,-0.0399 -0.063827,-0.07808 -0.09832,-0.114492 -0.034494,-0.03641 -0.070621,-0.07103 -0.1082812,-0.10377 -0.075321,-0.06548 -0.1567108,-0.123433 -0.2428125,-0.173144 -0.086102,-0.04971 -0.1769224,-0.0912 -0.2712891,-0.123692 -0.047183,-0.01624 -0.095246,-0.03023 -0.1440234,-0.04189 -0.048778,-0.01167 -0.098301,-0.02098 -0.1483594,-0.02789 -0.050058,-0.0069 -0.1006758,-0.01139 -0.1516992,-0.01336 z"
       transform="translate(-81.54119,1.2121455)" />
    <rect
       style="fill:#ffffff;fill-opacity:1;stroke:#000000;stroke-width:0.7346;stroke-dasharray:none;stroke-opacity:1"
       id="rect25"
       width="3.1115682"
       height="6.849124"
       x="-83.787399"
       y="-18.903893"
       ry="1.5557841" />
    <rect
       style="fill:#ffffff;fill-opacity:1;stroke:#000000;stroke-width:0.734601;stroke-dasharray:none;stroke-opacity:1"
       id="rect26"
       width="3.1115682"
       height="7.893734"
       x="-80.075836"
       y="-19.948503"
       ry="1.5557841" />
    <path
       id="path28"
       style="color:#000000;fill:#ffffff;fill-opacity:1;stroke-width:1.22433;-inkscape-stroke:none"
       d="m -75.490394,-16.00163 c -0.05387,0 -0.107123,0.0027 -0.159551,0.008 -0.05243,0.0053 -0.104075,0.01317 -0.154805,0.0235 -0.05073,0.01033 -0.100521,0.0231 -0.149297,0.0382 -0.04877,0.01511 -0.09652,0.03252 -0.143086,0.05215 -0.04656,0.01963 -0.09196,0.0415 -0.136054,0.06539 -0.0441,0.02389 -0.08689,0.04985 -0.128262,0.07775 -0.04137,0.0279 -0.08132,0.05776 -0.119707,0.08941 -0.03839,0.03166 -0.07524,0.0651 -0.110391,0.100253 -0.03515,0.03515 -0.0686,0.072 -0.100254,0.110391 -0.03165,0.03839 -0.06151,0.07834 -0.08941,0.119706 -0.0279,0.04137 -0.05386,0.08417 -0.07775,0.128262 -0.0239,0.0441 -0.0457,0.08949 -0.06533,0.136054 -0.01963,0.04656 -0.0371,0.09431 -0.05221,0.143086 -0.01511,0.04877 -0.02787,0.09857 -0.0382,0.149298 -0.01033,0.05073 -0.0182,0.102378 -0.0235,0.154805 -0.0053,0.05243 -0.008,0.105622 -0.008,0.159492 0,0.05387 0.0027,0.107063 0.008,0.159492 0.0053,0.05243 0.01317,0.104075 0.0235,0.154805 0.01033,0.05073 0.0231,0.100581 0.0382,0.149355 0.01511,0.04878 0.03258,0.09652 0.05221,0.143085 0.01963,0.04656 0.04144,0.09196 0.06533,0.136055 0.02389,0.0441 0.04985,0.08689 0.07775,0.128262 0.0279,0.04137 0.05776,0.08132 0.08941,0.119707 0.03166,0.03839 0.0651,0.07518 0.100254,0.110332 0.03515,0.03515 0.072,0.06866 0.110391,0.100312 0.03839,0.03166 0.07834,0.06151 0.119707,0.08941 0.04137,0.0279 0.08417,0.05386 0.128262,0.07775 0.0441,0.0239 0.08949,0.0457 0.136054,0.06533 0.04656,0.01963 0.09431,0.03704 0.143086,0.05215 0.04878,0.01511 0.09857,0.02793 0.149297,0.03826 0.05073,0.01033 0.102377,0.0182 0.154805,0.0235 0.05243,0.0053 0.105682,0.008 0.159551,0.008 h 2.837696 v 1.31291 c -0.07964,0.01979 -0.158219,0.04364 -0.235431,0.07143 -0.14607,0.06051 -0.285847,0.135224 -0.417304,0.223067 -0.13145,0.08784 -0.253954,0.188381 -0.365743,0.300175 -0.111794,0.111788 -0.212338,0.234293 -0.300175,0.365743 -0.08784,0.131459 -0.162559,0.271234 -0.223067,0.417304 -0.0605,0.146074 -0.106504,0.2977435 -0.137344,0.4528135 -0.03085,0.155073 -0.0464,0.312806 -0.04641,0.470918 2e-6,0.02734 0.0031,0.0545 0.004,0.0818 h 4.827482 c 0.0025,-0.03617 0.0055,-0.07221 0.0055,-0.109043 v -5.1429415 c 0,-0.05387 -0.0027,-0.107063 -0.008,-0.159492 -0.0053,-0.05243 -0.01311,-0.104075 -0.02344,-0.154805 -0.01032,-0.05071 -0.02316,-0.100539 -0.03826,-0.149297 v -5.7e-5 c -0.01511,-0.04878 -0.03252,-0.09646 -0.05215,-0.143029 -0.01963,-0.04656 -0.04144,-0.09196 -0.06533,-0.136054 -0.02389,-0.0441 -0.04991,-0.08689 -0.07781,-0.128262 -0.0279,-0.04137 -0.0577,-0.08132 -0.08936,-0.119707 -0.03166,-0.03839 -0.06516,-0.07524 -0.100312,-0.110391 -0.03515,-0.03515 -0.07194,-0.0686 -0.110332,-0.100252 -0.03839,-0.03166 -0.07834,-0.06151 -0.119707,-0.08941 -0.04137,-0.0279 -0.08423,-0.05386 -0.12832,-0.07775 -0.0441,-0.02389 -0.08943,-0.04576 -0.135997,-0.06539 h -5.8e-5 c -0.04655,-0.01962 -0.09427,-0.03705 -0.143027,-0.05215 -0.04877,-0.01511 -0.09862,-0.02787 -0.149356,-0.0382 -0.05073,-0.01033 -0.102377,-0.0182 -0.154805,-0.0235 -0.05243,-0.0053 -0.105623,-0.008 -0.159492,-0.008 z" />
    <path
       id="path29"
       style="color:#000000;fill:#000000;stroke-width:1.22433;-inkscape-stroke:none"
       d="m 13.27541,-13.777324 c -0.06389,0 -0.126983,0.0034 -0.189492,0.0098 -0.06238,0.0063 -0.124962,0.01697 -0.185508,0.0293 -0.06049,0.01232 -0.119545,0.02692 -0.177773,0.04494 -0.05812,0.01801 -0.114218,0.03898 -0.169922,0.06246 -0.05573,0.0235 -0.11156,0.04971 -0.164063,0.07816 -0.05267,0.02853 -0.102992,0.05848 -0.152343,0.09176 -0.04941,0.03332 -0.0968,0.06974 -0.142559,0.107461 -0.04569,0.03768 -0.09082,0.0771 -0.132832,0.119121 -0.04199,0.04199 -0.08142,0.0871 -0.119121,0.132832 -0.03772,0.04575 -0.07215,0.09316 -0.105469,0.142559 -0.0333,0.04937 -0.06523,0.09971 -0.09375,0.152343 -0.02858,0.05273 -0.0547,0.106607 -0.07811,0.162129 -0.0234,0.05551 -0.04445,0.11351 -0.06252,0.171856 -0.01807,0.05831 -0.03263,0.117274 -0.04494,0.177715 -0.01233,0.06055 -0.02101,0.121254 -0.02731,0.183632 -0.0063,0.06249 -0.0098,0.127475 -0.0098,0.191368 0,0.06389 0.0034,0.127005 0.0098,0.189492 0.0063,0.06238 0.01497,0.123028 0.02731,0.183574 0.01231,0.06044 0.02689,0.119421 0.04494,0.177715 0.01808,0.05837 0.03913,0.116427 0.06252,0.171914 0.02341,0.05553 0.04955,0.109382 0.07811,0.16207 0.02853,0.05267 0.06047,0.102993 0.09375,0.152344 0.03332,0.04941 0.06774,0.0988 0.105469,0.144551 0.03777,0.0458 0.07722,0.08894 0.119121,0.13084 0.04187,0.04187 0.08696,0.08136 0.132832,0.119179 0.0458,0.03777 0.09319,0.0741 0.142559,0.107403 0.04937,0.0333 0.09971,0.0633 0.152343,0.09182 0.05273,0.02858 0.108544,0.0547 0.164063,0.07811 0.05571,0.02349 0.111791,0.04451 0.169922,0.06252 0.05808,0.01799 0.117101,0.03259 0.177773,0.04494 0.06055,0.01233 0.123127,0.02299 0.185508,0.0293 0.06251,0.0063 0.125598,0.0098 0.189492,0.0098 h 2.53711 v 0.7890816 c -0.01223,0.00421 -0.02497,0.00734 -0.03715,0.011719 l -0.0059,0.00387 -0.0078,0.00199 c -0.164221,0.068029 -0.320951,0.1511981 -0.46875,0.2499609 -0.147785,0.098756 -0.284473,0.2122193 -0.410157,0.3379102 -0.125688,0.1256821 -0.239154,0.2643011 -0.33791,0.4120898 -0.09875,0.1477928 -0.183923,0.3045213 -0.251953,0.46875 -0.06802,0.1642278 -0.119604,0.3354208 -0.154277,0.5097656 -0.03468,0.1743332 -0.05079,0.3515674 -0.0508,0.529336 0.04477,8e-7 0.136923,0.081035 0.303482,0.081035 0.165817,0 0.251361,-0.081151 0.296234,-0.081152 9e-6,-0.1384548 0.014,-0.2762776 0.04102,-0.4120898 0.02701,-0.1357946 0.06614,-0.2705179 0.119121,-0.3984375 0.05299,-0.1279107 0.118367,-0.2501488 0.195293,-0.3652735 0.07692,-0.1151108 0.165773,-0.2223799 0.263672,-0.3202734 0.09789,-0.097899 0.205218,-0.1848144 0.320332,-0.2617383 0.115116,-0.076923 0.237296,-0.1423021 0.365215,-0.195293 0.06332,-0.022314 0.128205,-0.042404 0.193359,-0.058594 a 0.37372627,0.37372627 119.51147 0 0 0.226582,-0.4002954 v -0.9544432 a 0.54766411,0.54766411 45 0 0 -0.547664,-0.547664 H 13.27541 c -0.04385,0 -0.08656,-0.0035 -0.128906,-0.0078 -0.04247,-0.0043 -0.08413,-0.01118 -0.125039,-0.01951 -0.04078,-0.0083 -0.08157,-0.01713 -0.121055,-0.02936 -0.03942,-0.01221 -0.07784,-0.02717 -0.115254,-0.04295 -0.03761,-0.01585 -0.07392,-0.03351 -0.109394,-0.05273 -0.03555,-0.01926 -0.07011,-0.03996 -0.103477,-0.06246 -0.03336,-0.0225 -0.06669,-0.04674 -0.09768,-0.07231 -0.03091,-0.02548 -0.05946,-0.05167 -0.08789,-0.0801 -0.02841,-0.02841 -0.05649,-0.05885 -0.08203,-0.08982 -0.02558,-0.03102 -0.04977,-0.06235 -0.07225,-0.09568 -0.02252,-0.03339 -0.04327,-0.06801 -0.06252,-0.103535 -0.01923,-0.0355 -0.03689,-0.07175 -0.05273,-0.109336 -0.01563,-0.03708 -0.029,-0.07666 -0.04102,-0.115254 v -0.002 c -0.01191,-0.03869 -0.02301,-0.07879 -0.03123,-0.119179 -0.0083,-0.04091 -0.01528,-0.0825 -0.01957,-0.124981 -0.0043,-0.04237 -0.0059,-0.08506 -0.0059,-0.128906 0,-0.04385 0.0016,-0.08847 0.0059,-0.13084 0.0043,-0.04247 0.01124,-0.08413 0.01957,-0.125039 0.0084,-0.04101 0.01908,-0.07989 0.03123,-0.119121 0.01215,-0.03921 0.02516,-0.07764 0.04102,-0.115254 0.01585,-0.03761 0.03351,-0.07585 0.05273,-0.111328 0.01926,-0.03555 0.04002,-0.07011 0.06252,-0.103477 0.02248,-0.03333 0.04667,-0.06471 0.07225,-0.09574 0.0256,-0.03105 0.05372,-0.06151 0.08203,-0.08982 0.02829,-0.02829 0.0568,-0.05439 0.08789,-0.08004 0.03102,-0.02557 0.06435,-0.04983 0.09768,-0.07231 0.03339,-0.02252 0.06794,-0.04327 0.103477,-0.06252 0.03568,-0.01933 0.07201,-0.03692 0.109394,-0.05268 0.03743,-0.01578 0.07583,-0.0308 0.115254,-0.04301 0.03932,-0.01217 0.08008,-0.02095 0.121055,-0.0293 0.04091,-0.0083 0.08256,-0.01522 0.125039,-0.01951 0.04235,-0.0043 0.08506,-0.0059 0.128906,-0.0059 v 5.8e-5 h 4.392539 c 0.04384,0 0.08853,0.0016 0.130899,0.0059 0.04248,0.0043 0.08407,0.01118 0.12498,0.01951 0.04105,0.0084 0.07995,0.01716 0.119121,0.0293 0.03928,0.01216 0.07773,0.02719 0.115254,0.04301 0.03729,0.01572 0.07358,0.03333 0.109395,0.05273 0.03565,0.01932 0.07022,0.04003 0.103476,0.06246 0.03336,0.0225 0.06669,0.04675 0.09768,0.07231 0.03093,0.02551 0.05946,0.05161 0.08789,0.08004 0.02841,0.02841 0.05651,0.05893 0.08203,0.08988 0.02545,0.03085 0.04966,0.06219 0.07225,0.09568 0.02263,0.03356 0.04337,0.06819 0.06252,0.103535 0.01923,0.0355 0.03689,0.07374 0.05273,0.111328 0.01582,0.03753 0.02883,0.07585 0.04102,0.115196 0.01223,0.03949 0.02295,0.07849 0.03123,0.119179 0.0083,0.04069 0.01525,0.08228 0.01957,0.124981 0.0043,0.04237 0.0059,0.08699 0.0059,0.13084 v 5.1425973 c 0,0.036889 -0.002,0.072704 -0.0049,0.108457 h 0.600117 c 0.0016,-0.036068 0.0045,-0.071837 0.0045,-0.1083984 v -5.1425979 c 0,-0.06389 -0.0016,-0.128939 -0.0079,-0.191426 -0.0063,-0.06216 -0.01692,-0.122805 -0.0293,-0.183574 -0.0086,-0.04205 -0.01993,-0.08226 -0.03123,-0.123047 v -0.01172 l -0.01365,-0.04295 c -0.01803,-0.05822 -0.03908,-0.11631 -0.06252,-0.171914 -0.02341,-0.05553 -0.04956,-0.109382 -0.07811,-0.16207 -0.02863,-0.05285 -0.05865,-0.103158 -0.09182,-0.152344 -0.03321,-0.04924 -0.06953,-0.0967 -0.107402,-0.142617 -0.0378,-0.04583 -0.07729,-0.09088 -0.11918,-0.132773 -0.04187,-0.04187 -0.08692,-0.08138 -0.132773,-0.11918 -0.0458,-0.03777 -0.09325,-0.0741 -0.142618,-0.107402 -0.04948,-0.03337 -0.09982,-0.06336 -0.152343,-0.09182 -0.05238,-0.02838 -0.106224,-0.05456 -0.162071,-0.07811 l -0.05666,-0.02344 h -0.0078 c -0.03538,-0.0134 -0.071,-0.02781 -0.107402,-0.03908 -0.05837,-0.01808 -0.117358,-0.03258 -0.177774,-0.04488 -0.06055,-0.01233 -0.123127,-0.02299 -0.185507,-0.0293 -0.06249,-0.0063 -0.1256,-0.0098 -0.189493,-0.0098 z"
       inkscape:path-effect="#path-effect30"
       inkscape:original-d="m 13.27541,-13.777324 c -0.06389,0 -0.126983,0.0034 -0.189492,0.0098 -0.06238,0.0063 -0.124962,0.01697 -0.185508,0.0293 -0.06049,0.01232 -0.119545,0.02692 -0.177773,0.04494 -0.05812,0.01801 -0.114218,0.03898 -0.169922,0.06246 -0.05573,0.0235 -0.11156,0.04971 -0.164063,0.07816 -0.05267,0.02853 -0.102992,0.05848 -0.152343,0.09176 -0.04941,0.03332 -0.0968,0.06974 -0.142559,0.107461 -0.04569,0.03768 -0.09082,0.0771 -0.132832,0.119121 -0.04199,0.04199 -0.08142,0.0871 -0.119121,0.132832 -0.03772,0.04575 -0.07215,0.09316 -0.105469,0.142559 -0.0333,0.04937 -0.06523,0.09971 -0.09375,0.152343 -0.02858,0.05273 -0.0547,0.106607 -0.07811,0.162129 -0.0234,0.05551 -0.04445,0.11351 -0.06252,0.171856 -0.01807,0.05831 -0.03263,0.117274 -0.04494,0.177715 -0.01233,0.06055 -0.02101,0.121254 -0.02731,0.183632 -0.0063,0.06249 -0.0098,0.127475 -0.0098,0.191368 0,0.06389 0.0034,0.127005 0.0098,0.189492 0.0063,0.06238 0.01497,0.123028 0.02731,0.183574 0.01231,0.06044 0.02689,0.119421 0.04494,0.177715 0.01808,0.05837 0.03913,0.116427 0.06252,0.171914 0.02341,0.05553 0.04955,0.109382 0.07811,0.16207 0.02853,0.05267 0.06047,0.102993 0.09375,0.152344 0.03332,0.04941 0.06774,0.0988 0.105469,0.144551 0.03777,0.0458 0.07722,0.08894 0.119121,0.13084 0.04187,0.04187 0.08696,0.08136 0.132832,0.119179 0.0458,0.03777 0.09319,0.0741 0.142559,0.107403 0.04937,0.0333 0.09971,0.0633 0.152343,0.09182 0.05273,0.02858 0.108544,0.0547 0.164063,0.07811 0.05571,0.02349 0.111791,0.04451 0.169922,0.06252 0.05808,0.01799 0.117101,0.03259 0.177773,0.04494 0.06055,0.01233 0.123127,0.02299 0.185508,0.0293 0.06251,0.0063 0.125598,0.0098 0.189492,0.0098 h 2.53711 v 0.7890816 c -0.01223,0.00421 -0.02497,0.00734 -0.03715,0.011719 l -0.0059,0.00387 -0.0078,0.00199 c -0.164221,0.068029 -0.320951,0.1511981 -0.46875,0.2499609 -0.147785,0.098756 -0.284473,0.2122193 -0.410157,0.3379102 -0.125688,0.1256821 -0.239154,0.2643011 -0.33791,0.4120898 -0.09875,0.1477928 -0.183923,0.3045213 -0.251953,0.46875 -0.06802,0.1642278 -0.119604,0.3354208 -0.154277,0.5097656 -0.03468,0.1743332 -0.05079,0.3515674 -0.0508,0.529336 2e-6,0.027048 0.0011,0.054019 0.0019,0.081035 h 0.601816 c -0.0011,-0.027075 -0.004,-0.054023 -0.004,-0.081152 9e-6,-0.1384548 0.014,-0.2762776 0.04102,-0.4120898 0.02701,-0.1357946 0.06614,-0.2705179 0.119121,-0.3984375 0.05299,-0.1279107 0.118367,-0.2501488 0.195293,-0.3652735 0.07692,-0.1151108 0.165773,-0.2223799 0.263672,-0.3202734 0.09789,-0.097899 0.205218,-0.1848144 0.320332,-0.2617383 0.115116,-0.076923 0.237296,-0.1423021 0.365215,-0.195293 0.06332,-0.022314 0.128205,-0.042404 0.193359,-0.058594 l 0.226582,-0.05666 V -10.664062 H 13.27541 c -0.04385,0 -0.08656,-0.0035 -0.128906,-0.0078 -0.04247,-0.0043 -0.08413,-0.01118 -0.125039,-0.01951 -0.04078,-0.0083 -0.08157,-0.01713 -0.121055,-0.02936 -0.03942,-0.01221 -0.07784,-0.02717 -0.115254,-0.04295 -0.03761,-0.01585 -0.07392,-0.03351 -0.109394,-0.05273 -0.03555,-0.01926 -0.07011,-0.03996 -0.103477,-0.06246 -0.03336,-0.0225 -0.06669,-0.04674 -0.09768,-0.07231 -0.03091,-0.02548 -0.05946,-0.05167 -0.08789,-0.0801 -0.02841,-0.02841 -0.05649,-0.05885 -0.08203,-0.08982 -0.02558,-0.03102 -0.04977,-0.06235 -0.07225,-0.09568 -0.02252,-0.03339 -0.04327,-0.06801 -0.06252,-0.103535 -0.01923,-0.0355 -0.03689,-0.07175 -0.05273,-0.109336 -0.01563,-0.03708 -0.029,-0.07666 -0.04102,-0.115254 v -0.002 c -0.01191,-0.03869 -0.02301,-0.07879 -0.03123,-0.119179 -0.0083,-0.04091 -0.01528,-0.0825 -0.01957,-0.124981 -0.0043,-0.04237 -0.0059,-0.08506 -0.0059,-0.128906 0,-0.04385 0.0016,-0.08847 0.0059,-0.13084 0.0043,-0.04247 0.01124,-0.08413 0.01957,-0.125039 0.0084,-0.04101 0.01908,-0.07989 0.03123,-0.119121 0.01215,-0.03921 0.02516,-0.07764 0.04102,-0.115254 0.01585,-0.03761 0.03351,-0.07585 0.05273,-0.111328 0.01926,-0.03555 0.04002,-0.07011 0.06252,-0.103477 0.02248,-0.03333 0.04667,-0.06471 0.07225,-0.09574 0.0256,-0.03105 0.05372,-0.06151 0.08203,-0.08982 0.02829,-0.02829 0.0568,-0.05439 0.08789,-0.08004 0.03102,-0.02557 0.06435,-0.04983 0.09768,-0.07231 0.03339,-0.02252 0.06794,-0.04327 0.103477,-0.06252 0.03568,-0.01933 0.07201,-0.03692 0.109394,-0.05268 0.03743,-0.01578 0.07583,-0.0308 0.115254,-0.04301 0.03932,-0.01217 0.08008,-0.02095 0.121055,-0.0293 0.04091,-0.0083 0.08256,-0.01522 0.125039,-0.01951 0.04235,-0.0043 0.08506,-0.0059 0.128906,-0.0059 v 5.8e-5 h 4.392539 c 0.04384,0 0.08853,0.0016 0.130899,0.0059 0.04248,0.0043 0.08407,0.01118 0.12498,0.01951 0.04105,0.0084 0.07995,0.01716 0.119121,0.0293 0.03928,0.01216 0.07773,0.02719 0.115254,0.04301 0.03729,0.01572 0.07358,0.03333 0.109395,0.05273 0.03565,0.01932 0.07022,0.04003 0.103476,0.06246 0.03336,0.0225 0.06669,0.04675 0.09768,0.07231 0.03093,0.02551 0.05946,0.05161 0.08789,0.08004 0.02841,0.02841 0.05651,0.05893 0.08203,0.08988 0.02545,0.03085 0.04966,0.06219 0.07225,0.09568 0.02263,0.03356 0.04337,0.06819 0.06252,0.103535 0.01923,0.0355 0.03689,0.07374 0.05273,0.111328 0.01582,0.03753 0.02883,0.07585 0.04102,0.115196 0.01223,0.03949 0.02295,0.07849 0.03123,0.119179 0.0083,0.04069 0.01525,0.08228 0.01957,0.124981 0.0043,0.04237 0.0059,0.08699 0.0059,0.13084 v 5.1425973 c 0,0.036889 -0.002,0.072704 -0.0049,0.108457 h 0.600117 c 0.0016,-0.036068 0.0045,-0.071837 0.0045,-0.1083984 v -5.1425979 c 0,-0.06389 -0.0016,-0.128939 -0.0079,-0.191426 -0.0063,-0.06216 -0.01692,-0.122805 -0.0293,-0.183574 -0.0086,-0.04205 -0.01993,-0.08226 -0.03123,-0.123047 v -0.01172 l -0.01365,-0.04295 c -0.01803,-0.05822 -0.03908,-0.11631 -0.06252,-0.171914 -0.02341,-0.05553 -0.04956,-0.109382 -0.07811,-0.16207 -0.02863,-0.05285 -0.05865,-0.103158 -0.09182,-0.152344 -0.03321,-0.04924 -0.06953,-0.0967 -0.107402,-0.142617 -0.0378,-0.04583 -0.07729,-0.09088 -0.11918,-0.132773 -0.04187,-0.04187 -0.08692,-0.08138 -0.132773,-0.11918 -0.0458,-0.03777 -0.09325,-0.0741 -0.142618,-0.107402 -0.04948,-0.03337 -0.09982,-0.06336 -0.152343,-0.09182 -0.05238,-0.02838 -0.106224,-0.05456 -0.162071,-0.07811 l -0.05666,-0.02344 h -0.0078 c -0.03538,-0.0134 -0.071,-0.02781 -0.107402,-0.03908 -0.05837,-0.01808 -0.117358,-0.03258 -0.177774,-0.04488 -0.06055,-0.01233 -0.123127,-0.02299 -0.185507,-0.0293 -0.06249,-0.0063 -0.1256,-0.0098 -0.189493,-0.0098 z"
       transform="translate(-88.765453,-2.5250687)" />
  </g>
</svg>
